<svg xmlns="http://www.w3.org/2000/svg" width="569" height="635" viewBox="0 0 569 635">
<g>
<path d="M 336.50 443.52 C311.11,446.97 280.76,446.30 250.21,441.62 C239.76,440.02 214.08,434.41 213.21,433.54 C212.95,433.28 213.29,431.71 213.98,430.06 C214.73,428.24 215.07,424.14 214.85,419.69 C214.55,413.71 213.96,411.54 211.72,408.16 L 208.97 404.00 L 211.29 404.00 C213.92,404.00 238.43,409.98 247.50,412.83 C250.80,413.86 259.86,417.01 267.64,419.81 C291.12,428.28 304.12,430.92 326.11,431.71 C344.49,432.37 348.40,430.93 333.34,429.03 C312.53,426.41 289.23,419.20 259.00,406.01 C231.53,394.03 219.40,389.96 198.80,385.83 C189.29,383.92 184.25,383.55 167.00,383.53 C148.81,383.50 145.48,383.76 137.48,385.81 C128.64,388.06 128.24,388.08 118.05,386.56 C103.12,384.32 90.73,384.83 71.00,388.49 C67.67,389.11 67.60,389.06 69.47,387.55 C72.30,385.27 87.14,381.06 103.36,377.94 L 109.22 376.81 L 105.79 373.16 C94.77,361.41 87.37,350.16 78.45,331.58 C64.11,301.70 57.74,273.99 57.73,241.50 C57.73,222.32 59.30,208.36 63.62,189.12 C65.52,180.66 66.85,173.51 66.58,173.24 C66.31,172.97 64.47,173.71 62.49,174.88 C57.75,177.67 56.09,177.56 52.51,174.18 C49.92,171.73 49.16,171.49 46.82,172.38 C43.13,173.77 39.65,171.79 36.20,166.34 C34.35,163.42 32.79,162.06 31.25,162.04 C30.01,162.02 29.00,161.80 29.00,161.56 C29.00,159.75 37.90,151.93 41.55,150.53 C44.59,149.37 46.19,148.10 46.58,146.53 C47.05,144.66 48.05,144.12 52.04,143.59 C54.72,143.23 57.20,142.49 57.54,141.94 C58.44,140.47 65.03,141.86 68.38,144.22 L 71.26 146.25 L 77.27 139.82 L 71.49 140.54 C67.54,141.04 65.92,140.93 66.37,140.21 C67.07,139.08 62.85,137.51 56.76,136.66 C54.24,136.30 52.54,136.60 51.58,137.56 C49.81,139.33 46.68,139.46 47.25,137.75 C47.47,137.06 48.96,135.82 50.54,135.00 C52.13,134.18 54.09,132.88 54.91,132.13 C56.64,130.53 66.76,131.21 69.85,133.14 C71.36,134.08 72.58,133.90 76.11,132.21 C78.53,131.06 81.77,129.81 83.33,129.43 C85.61,128.88 86.05,128.33 85.60,126.62 C85.28,125.45 85.02,124.22 85.01,123.88 C84.99,122.91 80.03,123.13 79.42,124.12 C79.13,124.61 78.03,125.00 76.99,125.00 C75.95,125.00 74.68,125.74 74.18,126.65 C73.46,127.93 72.39,128.16 69.46,127.69 C67.37,127.35 65.40,126.65 65.08,126.13 C64.76,125.61 63.19,125.03 61.60,124.84 C60.00,124.65 58.21,123.69 57.60,122.69 C56.13,120.28 58.77,118.31 64.64,117.43 C68.01,116.92 69.00,116.35 69.00,114.89 C69.00,113.85 69.40,113.00 69.89,113.00 C70.38,113.00 70.72,112.24 70.64,111.31 C70.54,110.09 71.90,109.22 75.50,108.20 C78.25,107.42 81.28,106.09 82.24,105.25 C83.60,104.04 85.41,103.84 90.63,104.33 L 97.27 104.95 L 113.45 88.69 C122.35,79.74 134.33,68.78 140.08,64.33 C175.74,36.71 211.19,20.97 253.50,13.96 C269.97,11.23 301.57,10.90 318.53,13.29 C352.34,18.05 382.78,28.69 411.51,45.81 C447.65,67.34 481.81,103.02 501.68,140.00 C518.71,171.70 527.55,214.17 524.94,251.75 C521.70,298.32 505.19,342.12 478.46,375.00 C470.88,384.33 461.02,393.54 449.25,402.28 C435.63,412.40 425.58,417.74 406.43,425.04 C378.74,435.60 361.74,440.09 336.50,443.52 ZM 306.00 318.92 C313.33,322.17 314.21,322.37 315.55,321.09 C316.07,320.59 319.88,319.22 324.00,318.03 C335.06,314.85 348.12,310.15 370.00,301.50 C380.73,297.25 403.42,289.09 420.43,283.36 C437.44,277.63 451.88,272.51 452.52,271.98 C453.16,271.45 453.95,271.28 454.28,271.61 C454.60,271.94 457.71,271.28 461.19,270.14 C470.74,267.03 486.08,263.35 500.53,260.71 L 513.50 258.34 L 514.39 249.42 C515.56,237.60 513.74,213.00 510.55,197.50 C501.81,155.17 483.79,122.69 450.56,89.43 C387.61,26.42 297.55,5.14 214.55,33.66 C204.82,37.01 177.47,49.79 174.75,52.28 C174.01,52.95 171.40,54.58 168.95,55.90 C157.21,62.24 126.32,87.80 117.72,98.30 C113.40,103.57 112.66,106.79 116.20,104.89 C117.84,104.01 118.50,104.00 118.79,104.86 C119.00,105.49 120.48,106.00 122.08,106.00 C123.69,106.00 125.00,106.45 125.00,107.00 C125.00,107.55 125.70,108.00 126.56,108.00 C127.42,108.00 127.84,108.45 127.51,108.99 C126.88,110.00 141.64,109.70 142.65,108.68 C143.56,107.77 139.81,103.00 138.18,103.00 C137.01,103.00 136.89,102.71 137.72,101.88 C138.34,101.26 138.65,100.24 138.41,99.62 C138.11,98.84 139.41,98.60 142.50,98.84 L 147.03 99.20 L 146.02 96.55 C144.72,93.13 147.13,88.00 150.03,88.00 C151.11,88.00 152.00,88.50 152.00,89.11 C152.00,89.72 152.85,89.17 153.89,87.89 C155.52,85.88 155.99,85.75 157.42,86.93 C158.77,88.06 159.49,88.07 161.46,87.02 C163.46,85.95 164.64,86.03 168.80,87.53 C171.53,88.51 174.57,89.00 175.56,88.61 C177.27,87.96 177.25,87.81 175.31,85.87 L 173.26 83.82 L 175.38 81.57 C176.55,80.33 179.68,78.59 182.35,77.69 C186.96,76.13 187.37,76.15 191.06,78.03 C195.89,80.50 197.24,80.50 199.46,78.04 C201.22,76.10 201.28,76.11 206.22,78.61 C208.96,80.00 210.96,81.38 210.66,81.67 C210.36,81.97 210.65,82.78 211.30,83.48 C212.24,84.48 213.08,84.29 215.49,82.54 C217.15,81.33 219.27,80.52 220.21,80.74 C221.15,80.95 223.51,80.38 225.45,79.46 C227.43,78.52 229.76,78.09 230.74,78.48 C231.71,78.86 233.85,79.35 235.49,79.57 C237.14,79.79 240.57,81.05 243.11,82.37 C245.73,83.73 248.29,84.44 248.98,84.01 C250.71,82.95 253.55,83.85 255.59,86.10 C256.54,87.14 258.14,88.00 259.15,88.00 C260.17,88.00 261.00,88.44 261.00,88.99 C261.00,90.24 267.77,93.17 270.75,93.22 C272.20,93.24 273.00,93.86 273.00,94.97 C273.00,96.92 269.67,100.34 268.70,99.37 C268.13,98.80 263.18,100.63 258.76,103.05 C257.81,103.57 256.28,104.00 255.37,104.00 C254.46,104.00 253.16,104.77 252.47,105.71 C251.48,107.06 249.91,107.38 245.11,107.19 C241.75,107.06 239.00,107.36 239.00,107.86 C239.00,109.01 245.96,112.37 246.74,111.59 C247.06,111.27 247.95,111.91 248.72,113.01 C250.41,115.42 251.74,115.56 252.18,113.38 C252.40,112.27 253.85,111.64 256.85,111.38 C259.24,111.16 262.34,110.09 263.72,109.00 C266.13,107.11 268.54,107.04 273.00,108.74 C273.83,109.05 274.95,109.38 275.50,109.46 C276.05,109.55 277.29,109.98 278.26,110.42 C279.30,110.89 280.59,110.76 281.39,110.09 C282.37,109.28 283.54,109.25 285.51,110.00 C287.02,110.58 289.11,110.78 290.14,110.46 C292.05,109.85 295.77,112.56 294.61,113.72 C294.26,114.07 294.96,115.40 296.17,116.68 C298.02,118.65 298.09,119.00 296.67,119.00 C295.75,119.00 295.00,119.29 295.00,119.64 C295.00,120.89 298.54,122.94 300.75,122.97 C301.99,122.99 303.00,123.47 303.00,124.04 C303.00,124.61 304.23,123.94 305.74,122.54 C308.66,119.83 309.57,119.50 310.41,120.85 C310.69,121.31 312.29,121.73 313.95,121.78 C318.19,121.90 318.93,122.61 318.09,125.75 C317.63,127.52 316.58,128.61 315.18,128.82 C313.98,129.00 313.00,129.49 313.00,129.92 C313.00,130.35 311.87,131.93 310.48,133.42 C309.10,134.92 308.21,136.53 308.51,137.02 C308.81,137.50 311.41,137.65 314.28,137.35 C318.50,136.91 320.11,136.17 322.68,133.50 C324.42,131.68 327.23,129.89 328.93,129.52 C330.62,129.14 332.00,128.41 332.00,127.88 C332.00,126.21 339.40,128.11 341.07,130.20 C342.40,131.88 343.35,132.07 347.32,131.47 C350.51,131.00 352.00,131.13 352.00,131.89 C352.00,132.50 352.62,133.00 353.38,133.00 C354.14,133.00 355.34,133.70 356.05,134.56 C356.84,135.51 358.21,135.91 359.51,135.59 C361.32,135.13 361.87,135.66 362.81,138.72 C363.43,140.74 363.74,142.59 363.51,142.83 C363.27,143.06 360.47,143.59 357.29,144.00 C354.10,144.40 352.03,144.80 352.68,144.87 C354.63,145.09 354.63,149.37 352.68,151.32 C351.34,152.66 350.08,152.96 347.81,152.46 C345.94,152.05 344.98,152.16 345.34,152.75 C345.67,153.28 344.71,153.71 343.22,153.72 C336.80,153.73 332.99,155.84 335.27,158.12 C336.03,158.89 336.47,160.08 336.25,160.76 C336.02,161.44 336.57,162.00 337.48,162.00 C338.38,162.00 338.84,162.45 338.50,163.00 C337.89,163.98 339.02,164.34 342.00,164.12 C344.28,163.95 345.77,165.25 346.47,168.01 C347.07,170.43 346.92,170.51 341.35,170.75 C338.19,170.88 335.21,171.39 334.73,171.87 C334.23,172.37 331.21,171.90 327.68,170.78 C324.28,169.70 317.45,168.40 312.50,167.90 C307.55,167.40 301.54,166.71 299.15,166.38 C296.76,166.04 293.83,166.23 292.65,166.78 C291.47,167.34 288.70,168.59 286.50,169.56 C280.07,172.39 277.11,174.98 277.57,177.36 C278.09,180.08 282.01,183.09 284.17,182.43 C285.08,182.15 286.13,182.41 286.50,183.01 C286.93,183.70 288.81,183.85 291.72,183.42 C298.24,182.44 296.98,184.98 289.92,187.03 C284.59,188.58 284.38,188.56 277.00,185.80 C267.98,182.44 264.54,182.36 255.94,185.29 C248.22,187.92 240.20,192.61 231.78,199.42 L 225.70 204.33 L 226.36 219.57 C227.17,238.38 229.82,266.80 230.97,268.94 C231.43,269.81 231.78,272.09 231.74,274.01 C231.69,275.93 232.47,282.51 233.47,288.64 L 235.27 299.77 L 240.89 300.41 C255.48,302.06 290.29,311.96 306.00,318.92 ZM 216.20 543.93 C196.13,550.69 181.49,539.38 185.03,519.85 C187.23,507.69 200.17,467.45 203.51,462.34 C204.39,461.00 206.24,459.48 207.62,458.96 C210.98,457.68 227.63,457.73 230.07,459.04 C232.74,460.47 232.53,462.31 228.39,473.63 C216.73,505.46 213.81,516.80 215.87,522.19 C217.52,526.49 220.43,527.49 225.59,525.52 C229.09,524.18 231.21,522.20 236.14,515.67 C243.12,506.43 244.76,503.06 251.82,483.45 C260.92,458.20 260.39,458.79 274.50,458.18 C284.40,457.74 288.00,458.75 288.00,461.95 C288.00,462.98 284.41,474.01 280.02,486.45 C270.57,513.22 268.88,520.64 271.35,524.42 C275.16,530.22 280.42,528.58 289.64,518.73 C297.11,510.74 302.24,500.52 308.83,480.50 C315.03,461.66 315.76,460.12 318.92,459.23 C320.34,458.83 325.74,458.56 330.92,458.63 C338.47,458.73 340.59,459.09 341.57,460.42 C343.11,462.53 342.83,463.68 336.89,479.59 C332.26,491.99 330.65,498.03 333.18,493.50 C335.91,488.61 345.75,476.34 352.09,469.91 C360.28,461.60 367.25,457.99 376.53,457.25 C388.34,456.30 395.93,462.64 395.97,473.50 C395.98,475.70 394.15,482.67 391.91,489.00 C381.79,517.51 380.99,520.11 381.61,522.57 C383.18,528.82 390.45,527.63 397.31,520.00 C403.67,512.93 408.00,503.84 414.94,483.00 C418.33,472.83 421.75,463.51 422.54,462.30 C426.25,456.63 450.00,456.46 450.00,462.11 C450.00,463.22 446.92,473.21 443.16,484.31 C433.00,514.32 431.96,521.96 437.54,525.62 C441.54,528.24 446.20,526.70 452.33,520.70 C459.12,514.07 464.11,504.02 471.97,481.12 C475.25,471.56 478.63,462.96 479.48,462.02 C481.79,459.47 487.88,457.99 495.62,458.10 C504.41,458.23 507.43,459.08 507.77,461.54 C507.92,462.62 505.74,469.80 502.93,477.50 C490.13,512.50 488.12,521.12 491.88,524.88 C495.95,528.95 501.00,527.06 508.78,518.55 C513.37,513.53 517.81,506.82 522.04,498.51 C523.68,495.30 525.72,494.46 529.58,495.43 C532.69,496.21 532.63,497.44 529.11,505.16 C521.95,520.87 508.39,536.71 497.53,542.06 C483.27,549.08 468.64,546.06 462.96,534.91 C461.88,532.81 461.00,529.94 461.00,528.54 C461.00,527.14 460.87,526.00 460.72,526.00 C460.56,526.00 457.30,529.06 453.47,532.81 C443.89,542.17 436.91,545.51 427.00,545.48 C415.34,545.44 408.27,540.77 405.78,531.48 L 404.69 527.38 L 398.01 534.06 C389.45,542.62 383.02,545.38 371.50,545.43 C357.87,545.50 352.74,540.87 352.17,528.00 C351.79,519.46 353.31,514.01 361.90,493.10 C368.32,477.48 368.37,476.63 362.66,477.73 C353.43,479.49 335.55,504.62 325.62,529.80 C321.16,541.12 320.31,542.53 317.05,544.04 C314.04,545.43 299.30,546.54 295.71,545.64 C292.34,544.80 291.84,542.94 293.44,537.28 L 293.67 536.47 C295.19,531.10 295.91,528.56 295.35,528.24 C294.85,527.95 293.31,529.48 290.38,532.39 L 289.89 532.87 C282.02,540.67 273.48,545.03 264.69,545.74 C252.60,546.71 244.44,542.04 241.91,532.70 C241.28,530.39 240.58,527.85 240.35,527.06 C240.06,526.10 238.41,527.35 235.37,530.83 C229.56,537.47 223.90,541.34 216.20,543.93 ZM 111.84 560.90 C86.31,564.90 64.50,560.67 51.89,549.28 C45.48,543.49 43.54,538.88 43.53,529.50 C43.53,516.39 48.94,507.26 61.65,498.97 C70.57,493.14 79.97,490.54 92.21,490.52 C99.12,490.50 101.28,490.85 102.64,492.21 C105.54,495.11 103.13,498.43 96.32,500.97 C87.49,504.25 82.41,507.59 78.58,512.60 C74.25,518.27 72.61,523.09 73.29,528.15 C74.06,533.85 76.20,536.46 82.71,539.65 C87.64,542.07 89.68,542.48 96.50,542.44 C120.73,542.30 143.00,525.78 143.00,507.95 C143.00,498.25 137.06,492.09 116.50,480.49 C87.80,464.30 81.19,456.53 82.19,440.17 C83.41,420.09 102.58,402.90 131.90,395.59 C140.54,393.44 144.60,393.00 155.94,393.00 C173.81,393.00 183.97,395.74 194.23,403.33 C197.94,406.07 202.54,413.40 203.99,418.87 C206.34,427.79 201.36,438.35 192.29,443.68 C187.99,446.21 186.57,446.50 178.46,446.50 C171.50,446.50 168.79,446.09 166.72,444.74 C163.54,442.66 162.04,438.19 164.11,436.98 C178.82,428.39 180.99,414.12 168.22,409.91 C162.68,408.08 143.81,409.31 136.17,412.01 C121.54,417.16 113.63,428.66 118.41,437.80 C121.48,443.64 128.45,448.75 148.00,459.47 C174.01,473.73 180.80,482.92 179.78,502.49 C179.35,510.70 178.85,512.66 175.43,519.63 C169.65,531.42 157.85,542.89 144.50,549.69 C133.52,555.29 121.63,559.37 111.84,560.90 ZM 351.50 416.39 C360.42,417.30 388.70,416.15 395.84,414.59 C411.57,411.16 427.86,404.20 443.19,394.38 C450.91,389.43 470.31,371.22 472.63,366.75 C474.01,364.08 473.97,364.00 471.28,363.85 C466.15,363.59 461.51,364.20 460.86,365.23 C460.51,365.80 459.74,365.96 459.16,365.60 C458.57,365.23 451.88,367.27 444.29,370.11 C406.32,384.36 397.68,386.38 374.50,386.39 C347.49,386.40 331.05,382.03 293.56,364.89 C256.62,347.99 245.13,345.00 214.50,344.29 C199.35,343.94 191.59,344.23 182.50,345.48 C164.94,347.88 136.06,348.51 122.00,346.79 C109.55,345.27 98.66,345.71 98.25,347.75 C98.11,348.44 98.45,349.00 99.00,349.00 C99.55,349.00 100.00,349.45 100.00,350.00 C100.00,350.55 101.65,353.29 103.67,356.10 L 107.34 361.21 L 115.42 360.54 C124.48,359.79 153.89,361.67 155.62,363.10 C156.28,363.65 164.25,363.77 175.12,363.39 C209.59,362.20 229.84,365.98 269.50,381.02 C288.19,388.11 304.69,394.90 303.33,394.96 C302.68,394.98 296.09,392.55 288.67,389.55 C253.40,375.30 235.35,369.79 212.88,366.43 C195.50,363.84 159.71,364.31 164.09,367.08 C164.87,367.57 167.75,367.98 170.50,367.99 C179.01,368.02 207.95,371.85 219.29,374.45 C239.39,379.04 252.77,383.68 296.00,401.03 C319.17,410.33 335.01,414.71 351.50,416.39 ZM 75.21 291.75 C76.54,294.41 76.60,294.41 83.86,292.56 C93.32,290.13 115.66,288.00 131.61,288.00 L 146.72 288.00 L 147.36 282.25 C147.71,279.09 148.68,260.99 149.53,242.03 L 151.06 207.55 L 148.85 205.89 C144.57,202.66 138.57,202.71 130.71,206.05 C123.47,209.13 118.27,209.62 118.78,207.17 C118.94,206.38 118.35,205.98 117.29,206.18 C116.32,206.37 115.37,207.42 115.18,208.51 C114.71,211.19 112.19,213.00 108.93,213.00 C107.45,213.00 105.68,213.68 105.00,214.50 C103.60,216.18 99.44,216.52 98.52,215.03 C98.19,214.49 96.06,213.55 93.79,212.94 C91.21,212.25 90.12,211.55 90.88,211.07 C91.55,210.66 91.97,209.68 91.80,208.91 C91.63,208.10 92.35,207.44 93.50,207.36 C94.60,207.28 96.24,207.16 97.14,207.11 C98.04,207.05 98.72,206.27 98.64,205.39 C98.53,204.10 99.69,203.72 104.50,203.51 C112.22,203.18 128.00,196.72 128.00,193.90 C128.00,193.43 126.76,192.78 125.25,192.46 C119.88,191.33 116.14,189.06 109.73,183.07 C102.58,176.37 100.21,175.75 92.50,178.53 C90.30,179.32 85.92,179.98 82.77,179.98 C77.34,180.00 77.01,180.14 76.43,182.75 C76.09,184.26 75.23,186.85 74.52,188.50 C73.32,191.30 72.21,196.08 71.38,202.00 C71.19,203.38 70.60,206.98 70.08,210.00 C68.06,221.62 67.71,247.84 69.40,261.50 C71.85,281.30 73.01,287.36 75.21,291.75 ZM 404.48 244.25 C405.23,246.31 405.54,247.97 405.17,247.94 C404.80,247.91 401.58,246.06 398.00,243.83 C394.42,241.61 388.48,238.07 384.79,235.97 C378.29,232.26 378.01,232.20 375.79,233.87 C370.25,238.05 353.08,247.42 352.34,246.67 C352.08,246.41 353.71,240.21 355.96,232.89 C358.21,225.57 359.85,219.06 359.61,218.42 C359.36,217.78 353.90,213.71 347.48,209.38 L 335.80 201.50 L 340.15 200.78 C342.54,200.38 349.41,199.70 355.42,199.28 L 366.33 198.50 L 372.10 184.50 C377.68,170.97 377.91,170.60 378.96,173.50 C379.55,175.15 382.24,181.45 384.94,187.50 L 389.84 198.50 L 399.17 199.27 C404.30,199.69 411.42,200.37 415.00,200.77 L 421.50 201.50 L 408.90 209.84 L 396.30 218.17 L 399.71 229.34 C401.59,235.48 403.74,242.19 404.48,244.25 ZM 329.63 626.40 C323.57,628.46 317.79,628.38 311.33,626.15 C304.21,623.69 299.97,620.18 296.47,613.87 C293.86,609.16 293.50,607.52 293.52,600.50 C293.54,593.76 293.97,591.68 296.25,587.31 C300.50,579.21 307.73,574.64 318.26,573.40 C326.79,572.40 333.96,574.95 340.48,581.30 C346.91,587.56 348.42,592.07 347.78,603.12 C347.42,609.36 346.82,611.59 344.42,615.39 C341.12,620.64 336.53,624.06 329.63,626.40 ZM 366.00 366.04 C374.28,367.56 379.57,367.88 391.00,367.55 C406.80,367.09 414.84,365.65 430.40,360.52 C435.95,358.69 444.33,356.03 449.00,354.62 C458.99,351.59 480.58,347.73 483.09,348.53 C484.70,349.04 488.00,345.85 488.00,343.78 C488.00,342.31 471.48,343.03 462.50,344.90 C457.55,345.93 446.30,349.34 437.50,352.48 C413.13,361.18 406.88,362.31 387.00,361.64 C362.92,360.84 354.29,358.52 318.50,343.23 C295.78,333.53 282.53,328.84 271.42,326.55 C258.39,323.88 242.16,322.70 226.58,323.32 C210.38,323.95 200.74,325.74 185.68,330.90 C165.75,337.72 160.29,338.46 129.50,338.51 C101.68,338.54 93.57,339.20 94.29,341.37 C94.69,342.59 113.58,343.65 139.16,343.87 C155.96,344.02 161.56,343.14 185.15,336.62 C212.37,329.09 231.24,327.41 254.14,330.46 C275.24,333.26 288.16,337.31 317.71,350.36 C336.74,358.76 350.18,363.13 366.00,366.04 ZM 248.50 594.50 L 247.95 626.00 L 235.00 626.00 L 235.00 573.82 L 242.67 574.42 C246.89,574.74 250.43,575.12 250.53,575.25 C251.89,577.05 267.08,600.16 268.11,602.00 C269.36,604.25 269.55,603.01 270.00,589.61 L 270.50 574.72 L 283.00 574.12 L 283.00 626.00 L 270.06 626.00 L 266.21 620.75 C264.09,617.86 259.24,610.78 255.43,605.00 ZM 218.99 624.91 C216.36,626.04 211.12,627.20 207.35,627.48 C194.71,628.42 185.15,623.74 179.56,613.89 C176.90,609.20 176.50,607.52 176.50,601.00 C176.50,586.72 184.33,576.73 197.72,573.95 C204.45,572.56 211.77,573.23 216.85,575.71 C220.16,577.33 220.52,577.92 220.76,582.00 C221.14,588.54 220.29,589.37 215.05,587.52 C204.49,583.79 194.37,586.83 191.40,594.63 C189.16,600.50 190.21,607.37 193.93,611.08 C199.16,616.31 210.14,617.33 211.38,612.69 C212.52,608.47 212.15,608.00 207.70,608.00 C202.30,608.00 201.00,606.70 201.00,601.30 L 201.00 597.00 L 223.77 597.00 L 224.18 604.24 C224.41,608.22 224.41,614.04 224.18,617.17 L 223.77 622.85 ZM 132.88 623.00 C131.79,625.90 131.55,626.00 125.38,626.00 C121.87,626.00 119.00,625.61 119.00,625.14 C119.00,624.45 129.70,593.80 135.45,578.00 L 136.73 574.50 L 144.87 574.59 C149.35,574.64 153.26,574.93 153.57,575.23 C154.40,576.06 171.00,623.17 171.00,624.69 C171.00,625.64 169.13,626.00 164.13,626.00 L 157.26 626.00 L 153.90 614.00 L 136.24 614.00 ZM 489.00 615.07 L 489.00 626.00 L 454.00 626.00 L 454.00 575.23 L 459.37 574.56 C462.32,574.19 470.20,574.02 476.87,574.17 L 489.00 574.45 L 489.00 585.93 L 478.25 586.22 L 467.50 586.50 L 466.89 595.00 L 485.00 595.00 L 485.00 605.91 L 479.25 605.52 C476.09,605.31 472.01,605.39 470.20,605.69 C467.02,606.22 466.91,606.40 467.20,610.37 L 467.50 614.50 L 478.25 614.78 ZM 107.59 625.06 C100.90,628.02 92.66,628.39 85.50,626.04 C73.74,622.17 67.00,613.17 67.00,601.34 C67.00,589.04 72.28,580.53 82.95,575.61 C89.17,572.75 101.76,572.70 107.50,575.53 L 111.50 577.50 L 111.80 584.25 C112.00,588.99 111.73,591.00 110.90,591.00 C110.24,591.00 107.28,589.82 104.33,588.37 C95.34,583.97 86.83,586.21 82.70,594.07 C79.50,600.15 81.87,608.66 87.90,612.71 C93.47,616.47 100.24,615.74 111.25,610.21 C111.66,610.00 112.00,612.82 112.00,616.47 L 112.00 623.11 ZM 429.23 606.75 L 428.96 626.00 L 416.00 626.00 L 416.00 587.00 L 402.00 587.00 L 402.00 575.00 L 421.92 575.00 C432.87,575.00 442.55,574.73 443.42,574.39 C444.76,573.88 445.00,574.78 445.00,580.35 L 445.00 586.92 L 429.50 587.50 ZM 380.00 587.00 L 380.00 626.00 L 367.00 626.00 L 367.00 587.00 L 350.90 587.00 L 351.20 580.75 L 351.50 574.50 L 356.75 574.54 C359.64,574.56 369.20,574.67 378.00,574.79 L 394.00 575.00 L 394.00 587.00 ZM 135.50 181.95 C140.95,183.29 156.15,182.49 159.67,180.67 C163.59,178.64 166.89,174.84 165.23,174.26 C164.53,174.02 163.22,173.07 162.30,172.16 C161.39,171.25 160.39,170.50 160.07,170.50 C159.76,170.49 157.92,169.29 156.00,167.82 C154.07,166.35 150.44,164.26 147.92,163.18 C139.69,159.65 119.94,153.89 118.09,154.47 C115.15,155.40 112.67,162.11 113.49,166.93 C114.80,174.68 119.76,178.07 135.50,181.95 ZM 213.95 177.82 C215.21,182.49 217.26,183.19 221.51,180.40 C222.85,179.52 228.56,176.48 234.20,173.63 C245.89,167.74 246.97,166.37 246.97,157.50 C246.97,148.86 246.92,148.83 236.97,150.54 C223.66,152.81 217.36,155.60 214.83,160.31 C213.24,163.28 212.74,173.31 213.95,177.82 ZM 315.50 614.65 C321.80,617.54 330.04,614.55 332.58,608.45 C335.87,600.59 333.60,590.56 327.81,587.35 C322.32,584.31 313.69,586.29 310.21,591.39 C304.63,599.56 307.20,610.84 315.50,614.65 ZM 170.00 154.45 C174.12,156.29 178.29,157.84 179.25,157.89 C181.85,158.05 189.00,150.25 189.00,147.26 C189.00,145.67 187.68,143.56 185.35,141.43 L 181.71 138.09 L 170.10 138.63 C163.72,138.92 157.94,139.34 157.25,139.55 C156.56,139.76 156.00,141.19 156.00,142.73 C156.00,146.47 160.49,150.23 170.00,154.45 ZM 260.98 163.43 C261.51,164.85 262.13,166.00 262.35,166.00 C265.76,166.00 293.12,153.00 292.34,151.74 C292.01,151.21 289.75,149.89 287.32,148.82 C283.86,147.29 281.51,146.98 276.49,147.39 C270.37,147.89 262.37,150.94 260.77,153.38 C259.72,154.98 259.83,160.42 260.98,163.43 ZM 206.05 148.65 C206.66,150.49 207.78,152.00 208.54,152.00 C209.30,152.00 213.73,150.04 218.40,147.64 C223.06,145.24 228.64,142.99 230.81,142.65 C232.97,142.30 235.35,141.28 236.09,140.39 C237.28,138.96 236.95,138.32 233.47,135.34 C229.97,132.33 229.02,131.99 225.50,132.49 C223.30,132.81 219.25,134.15 216.50,135.49 C213.75,136.82 209.83,138.58 207.79,139.39 C203.81,140.97 203.70,141.54 206.05,148.65 ZM 96.69 165.20 C99.66,168.29 102.13,168.76 103.95,166.56 C105.79,164.35 108.18,151.78 106.99,150.59 C106.34,149.94 106.00,150.01 106.00,150.80 C106.00,151.50 104.56,152.00 102.54,152.00 C99.97,152.00 98.76,152.58 97.88,154.23 C97.22,155.46 96.08,157.06 95.34,157.80 C93.31,159.84 93.72,162.10 96.69,165.20 ZM 153.47 133.60 C157.52,135.36 162.14,135.33 165.64,133.51 C167.67,132.44 167.98,132.01 166.68,132.01 C165.68,132.00 163.43,130.96 161.68,129.70 C156.80,126.17 145.72,123.03 144.59,124.86 C143.78,126.16 149.66,131.94 153.47,133.60 ZM 139.67 604.27 C140.13,605.02 149.93,604.50 150.62,603.68 C150.99,603.25 145.52,587.00 145.00,587.00 C144.05,587.00 139.03,603.24 139.67,604.27 ZM 127.25 147.28 C129.52,148.10 140.00,146.41 140.00,145.23 C140.00,144.83 138.93,143.26 137.63,141.75 C135.34,139.08 132.00,138.02 132.00,139.95 C132.00,140.51 129.92,140.66 127.00,140.31 C121.63,139.68 120.33,140.94 124.00,143.23 C125.10,143.92 126.00,145.01 126.00,145.66 C126.00,146.30 126.56,147.04 127.25,147.28 ZM 205.92 134.75 C206.09,135.30 208.12,134.95 209.76,134.09 C210.72,133.60 213.30,132.70 215.50,132.10 C217.70,131.50 220.18,130.57 221.00,130.04 C223.42,128.48 220.28,126.14 214.75,125.38 C210.71,124.83 209.94,125.00 209.34,126.62 C208.95,127.65 207.85,129.06 206.90,129.75 C205.50,130.76 205.19,132.34 205.92,134.75 ZM 80.79 171.30 C87.49,173.54 91.00,173.47 91.00,171.11 C91.00,168.00 87.79,165.13 83.99,164.85 C80.06,164.56 78.46,165.26 77.04,167.92 C76.21,169.48 76.73,169.95 80.79,171.30 ZM 190.75 122.31 C193.64,123.06 194.00,123.04 194.00,122.09 C194.00,121.60 194.90,121.42 196.00,121.71 C199.30,122.57 198.27,119.73 194.39,117.25 C192.45,116.01 190.44,115.00 189.93,115.00 C189.42,115.00 189.00,114.60 189.00,114.12 C189.00,113.12 184.84,110.19 182.82,109.77 C182.09,109.62 181.18,109.05 180.79,108.51 C180.34,107.87 179.65,107.95 178.88,108.72 C177.94,109.66 178.21,110.16 180.09,111.01 C184.61,113.03 187.50,114.93 187.62,115.97 C187.69,116.54 187.86,117.22 188.00,117.50 C188.31,118.11 188.71,119.68 188.88,120.93 C188.94,121.44 189.79,122.06 190.75,122.31 ZM 221.25 119.73 C224.78,120.58 231.66,120.43 232.80,119.49 C232.96,119.35 232.37,118.51 231.48,117.62 C229.79,115.93 225.47,115.56 220.12,116.62 C215.83,117.48 216.21,118.53 221.25,119.73 ZM 183.75 131.88 C185.26,133.01 187.74,133.95 189.25,133.97 C191.46,133.99 192.00,133.55 192.00,131.72 C192.00,129.03 187.64,126.96 183.59,127.74 C180.29,128.37 180.32,129.33 183.75,131.88 ZM 256.55 145.08 C257.89,147.25 266.59,144.69 267.31,141.90 C267.88,139.74 263.83,138.48 261.06,139.97 C258.15,141.53 255.92,144.06 256.55,145.08 ZM 249.35 136.24 C247.76,138.82 262.95,134.48 265.92,131.51 C267.27,130.16 267.19,130.00 265.21,130.00 C264.00,130.00 263.00,130.34 263.00,130.75 C263.00,131.16 260.03,132.40 256.41,133.49 C252.79,134.58 249.61,135.82 249.35,136.24 ZM 318.37 162.51 C318.87,163.83 319.21,163.80 320.99,162.28 C322.98,160.57 322.86,160.50 316.36,159.30 C308.75,157.90 307.38,158.25 309.75,161.02 C310.85,162.31 311.76,162.64 312.41,161.99 C313.92,160.48 317.71,160.81 318.37,162.51 ZM 238.01 129.26 C239.38,129.52 240.89,129.79 241.37,129.86 C242.38,130.02 240.31,127.09 238.11,125.25 C237.29,124.56 235.29,124.00 233.67,124.00 L 230.73 124.00 L 233.13 126.40 C234.45,127.72 236.65,129.01 238.01,129.26 ZM 106.00 104.50 C106.00,105.32 106.85,106.00 107.89,106.00 C108.93,106.00 110.05,105.32 110.36,104.50 C110.78,103.42 110.25,103.00 108.47,103.00 C106.94,103.00 106.00,103.57 106.00,104.50 ZM 155.50 116.00 C155.84,116.55 157.47,117.00 159.12,117.00 C160.86,117.00 161.86,116.58 161.50,116.00 C161.16,115.45 159.53,115.00 157.88,115.00 C156.14,115.00 155.14,115.42 155.50,116.00 ZM 286.00 137.92 C286.00,139.54 286.61,139.98 288.75,139.93 C290.92,139.87 291.12,139.71 289.68,139.14 C288.67,138.75 287.92,138.00 288.00,137.49 C288.08,136.97 287.67,136.39 287.08,136.19 C286.48,135.99 286.00,136.77 286.00,137.92 ZM 278.35 138.46 C279.09,140.40 281.00,140.48 281.00,138.56 C281.00,136.97 279.19,135.48 278.31,136.36 C278.00,136.66 278.02,137.61 278.35,138.46 ZM 171.23 123.00 C171.92,124.10 173.12,125.00 173.90,125.00 C174.98,125.00 174.89,124.54 173.50,123.00 C172.50,121.90 171.31,121.00 170.84,121.00 C170.37,121.00 170.55,121.90 171.23,123.00 ZM 180.00 123.00 C180.00,123.55 180.87,124.00 181.94,124.00 C183.01,124.00 184.16,123.55 184.50,123.00 C184.85,122.43 184.01,122.00 182.56,122.00 C181.15,122.00 180.00,122.45 180.00,123.00 ZM 268.50 129.00 C268.84,129.55 269.77,130.00 270.56,130.00 C271.35,130.00 272.00,129.55 272.00,129.00 C272.00,128.45 271.07,128.00 269.94,128.00 C268.81,128.00 268.16,128.45 268.50,129.00 ZM 80.00 136.00 C80.00,136.55 81.24,136.97 82.75,136.93 C85.19,136.87 85.27,136.76 83.50,136.00 C80.77,134.83 80.00,134.83 80.00,136.00 ZM 139.50 111.00 C139.84,111.55 140.54,112.00 141.06,112.00 C141.58,112.00 142.00,111.55 142.00,111.00 C142.00,110.45 141.30,110.00 140.44,110.00 C139.58,110.00 139.16,110.45 139.50,111.00 ZM 110.50 139.00 C110.84,139.55 111.54,140.00 112.06,140.00 C112.58,140.00 113.00,139.55 113.00,139.00 C113.00,138.45 112.30,138.00 111.44,138.00 C110.58,138.00 110.16,138.45 110.50,139.00 ZM 161.76 362.31 C162.72,362.56 161.70,362.76 159.50,362.75 C157.30,362.74 156.52,362.53 157.76,362.29 C159.01,362.05 160.81,362.06 161.76,362.31 Z" fill="rgb(34,52,9)"/>
<path d="M 278.83 21.42 C273.87,21.92 277.45,22.77 289.00,22.92 C296.98,23.02 306.42,23.54 310.00,24.08 C316.09,25.00 319.50,25.36 326.31,25.81 C327.87,25.92 328.85,26.44 328.51,26.99 C328.16,27.54 328.54,27.73 329.37,27.41 C330.18,27.10 332.00,27.61 333.42,28.54 C335.49,29.89 336.01,31.05 336.04,34.37 C336.09,39.18 336.94,43.57 339.87,54.23 C341.13,58.81 342.03,65.13 342.08,69.73 C342.12,74.00 342.81,82.22 343.61,88.00 C344.41,93.78 345.22,101.09 345.40,104.25 L 345.75 110.00 L 341.62 111.12 C336.71,112.47 332.61,114.17 324.40,118.26 C319.85,120.53 318.60,121.44 318.30,123.22 C317.95,122.18 316.67,121.86 313.95,121.78 C313.48,121.77 313.02,121.72 312.59,121.66 C312.79,121.56 313.00,121.40 313.21,121.19 C314.67,119.73 311.91,118.60 306.75,118.54 C304.69,118.52 303.00,118.11 303.00,117.63 C303.00,117.15 302.38,117.27 301.63,117.89 C300.23,119.05 298.33,117.78 298.05,115.50 C297.85,113.86 293.91,109.76 293.20,110.46 C293.03,110.64 293.03,110.91 293.17,111.19 C292.20,110.57 290.99,110.19 290.14,110.46 C289.11,110.78 287.02,110.58 285.51,110.00 C283.54,109.25 282.37,109.28 281.39,110.09 C280.59,110.76 279.30,110.89 278.26,110.42 C277.29,109.98 276.05,109.55 275.50,109.46 C274.95,109.38 273.83,109.05 273.00,108.74 C268.54,107.04 266.13,107.11 263.72,109.00 C262.34,110.09 259.24,111.16 256.85,111.38 C253.85,111.64 252.40,112.27 252.18,113.38 C251.74,115.56 250.41,115.42 248.72,113.01 C247.95,111.91 247.06,111.27 246.74,111.59 C246.41,111.93 244.93,111.50 243.35,110.81 C243.50,110.50 243.29,109.84 242.77,109.00 C242.26,108.19 241.58,107.59 240.93,107.27 C242.02,107.16 243.49,107.12 245.11,107.19 C249.91,107.38 251.48,107.06 252.47,105.71 C253.16,104.77 254.46,104.00 255.37,104.00 C256.28,104.00 257.81,103.57 258.76,103.05 C263.18,100.63 268.13,98.80 268.70,99.37 C269.67,100.34 273.00,96.92 273.00,94.97 C273.00,93.86 272.20,93.24 270.75,93.22 C267.77,93.17 261.00,90.24 261.00,88.99 C261.00,88.44 260.17,88.00 259.15,88.00 C258.14,88.00 256.54,87.14 255.59,86.10 C253.55,83.85 250.71,82.95 248.98,84.01 C248.29,84.44 245.73,83.73 243.11,82.37 C240.57,81.05 237.14,79.79 235.49,79.57 C233.85,79.35 231.71,78.86 230.74,78.48 C229.76,78.09 227.43,78.52 225.45,79.46 C223.51,80.38 221.15,80.95 220.21,80.74 C219.27,80.52 217.15,81.33 215.49,82.54 C213.08,84.29 212.24,84.48 211.30,83.48 C210.65,82.78 210.36,81.97 210.66,81.67 C210.96,81.38 208.96,80.00 206.22,78.61 C201.28,76.11 201.22,76.10 199.46,78.04 C197.24,80.50 195.89,80.50 191.06,78.03 C187.37,76.15 186.96,76.13 182.35,77.69 C179.68,78.59 176.55,80.33 175.38,81.57 L 173.26 83.82 L 175.31 85.87 C177.25,87.81 177.27,87.96 175.56,88.61 C174.57,89.00 171.53,88.51 168.80,87.53 C164.64,86.03 163.46,85.95 161.46,87.02 C159.49,88.07 158.77,88.06 157.42,86.93 C155.99,85.75 155.52,85.88 153.89,87.89 C152.85,89.17 152.00,89.72 152.00,89.11 C152.00,88.50 151.11,88.00 150.03,88.00 C147.13,88.00 144.72,93.13 146.02,96.55 L 147.03 99.20 L 142.50 98.84 C139.41,98.60 138.11,98.84 138.41,99.62 C138.65,100.24 138.34,101.26 137.72,101.88 C136.89,102.71 137.01,103.00 138.18,103.00 C139.81,103.00 143.56,107.77 142.65,108.68 C141.64,109.70 126.88,110.00 127.51,108.99 C127.84,108.45 127.42,108.00 126.56,108.00 C125.70,108.00 125.00,107.55 125.00,107.00 C125.00,106.45 123.69,106.00 122.08,106.00 C120.48,106.00 119.00,105.49 118.79,104.86 C118.50,104.00 117.84,104.01 116.20,104.89 C112.66,106.79 113.40,103.57 117.72,98.30 C126.32,87.80 157.21,62.24 168.95,55.90 C171.40,54.58 174.01,52.95 174.75,52.28 C177.47,49.79 204.82,37.01 214.55,33.66 C235.71,26.39 257.32,22.36 278.83,21.42 ZM 306.00 318.92 C290.29,311.96 255.48,302.06 240.89,300.41 L 235.27 299.77 L 233.47 288.64 C232.47,282.51 231.69,275.93 231.74,274.01 C231.78,272.09 231.43,269.81 230.97,268.94 C229.82,266.80 227.17,238.38 226.36,219.57 L 225.70 204.33 L 231.78 199.42 C240.20,192.61 248.22,187.92 255.94,185.29 C264.54,182.36 267.98,182.44 277.00,185.80 C283.17,188.11 284.33,188.50 287.66,187.66 C283.68,189.15 283.67,191.59 284.42,205.30 C285.35,222.21 285.35,222.23 284.51,224.75 C283.96,226.43 284.16,227.00 285.29,227.00 C286.24,227.00 287.99,229.84 289.97,234.58 C291.70,238.74 294.78,245.07 296.81,248.64 C298.84,252.21 300.98,255.97 301.56,257.00 C304.96,262.99 319.77,276.63 329.53,282.77 C340.02,289.35 358.93,295.93 367.68,296.03 C369.23,296.05 371.37,296.72 372.44,297.53 C374.18,298.85 375.53,299.23 377.27,298.70 C374.50,299.75 372.03,300.69 370.00,301.50 C348.12,310.15 335.06,314.85 324.00,318.03 C319.88,319.22 316.07,320.59 315.55,321.09 C314.21,322.37 313.33,322.17 306.00,318.92 ZM 369.00 400.27 C370.92,400.50 373.07,400.75 373.77,400.84 C374.47,400.93 375.53,399.92 376.13,398.60 C378.50,393.41 385.12,390.74 406.50,386.38 C410.35,385.60 413.65,384.53 413.83,384.00 C414.00,383.48 416.40,382.75 419.14,382.39 C421.89,382.02 424.75,381.11 425.49,380.36 C426.24,379.61 427.50,379.00 428.29,379.00 C429.08,379.00 431.45,377.83 433.55,376.40 C435.66,374.97 438.54,373.60 439.94,373.36 C442.34,372.95 447.51,370.87 454.50,367.49 L 457.50 366.04 L 454.50 366.65 C454.30,366.69 454.03,366.76 453.71,366.85 C456.75,365.90 458.84,365.40 459.16,365.60 C459.74,365.96 460.51,365.80 460.86,365.23 C461.51,364.20 466.15,363.59 471.28,363.85 C473.97,364.00 474.01,364.08 472.63,366.75 C470.84,370.20 458.86,381.85 449.94,389.26 C449.82,389.13 449.56,389.15 449.25,389.33 C445.84,391.36 428.68,398.84 421.00,401.65 C407.04,406.74 399.37,408.10 381.00,408.71 C348.00,409.81 327.68,405.45 283.57,387.82 C256.90,377.17 238.35,371.04 221.13,367.81 C240.13,371.31 257.80,377.08 288.67,389.55 C296.09,392.55 302.68,394.98 303.33,394.96 C304.69,394.90 288.19,388.11 269.50,381.02 C229.84,365.98 209.59,362.20 175.12,363.39 C164.25,363.77 156.28,363.65 155.62,363.10 C153.89,361.67 124.48,359.79 115.42,360.54 L 107.34 361.21 L 103.67 356.10 C101.65,353.29 100.00,350.55 100.00,350.00 C100.00,349.45 99.55,349.00 99.00,349.00 C98.45,349.00 98.11,348.44 98.25,347.75 C98.66,345.71 109.55,345.27 122.00,346.79 C136.06,348.51 164.94,347.88 182.50,345.48 C191.59,344.23 199.35,343.94 214.50,344.29 C245.13,345.00 256.62,347.99 293.56,364.89 C331.05,382.03 347.49,386.40 374.50,386.39 C376.03,386.38 377.49,386.38 378.90,386.35 C368.73,386.59 357.96,386.21 352.00,385.15 C343.22,383.59 330.65,380.47 326.80,378.90 C325.32,378.29 323.52,378.01 322.80,378.26 C322.09,378.52 323.51,379.28 325.97,379.96 C328.42,380.64 332.47,382.09 334.97,383.18 C337.46,384.27 340.90,385.76 342.61,386.50 C344.32,387.23 347.76,388.14 350.26,388.52 C354.63,389.17 355.35,390.05 353.67,392.73 C353.13,393.60 354.12,394.16 357.04,394.62 C359.40,395.00 362.12,396.28 363.34,397.58 C364.54,398.85 367.06,400.05 369.00,400.27 ZM 453.18 271.58 L 458.25 265.00 C465.28,255.86 472.10,242.24 475.01,231.50 C478.30,219.37 478.76,202.23 476.13,189.50 C472.56,172.24 463.78,153.72 453.80,142.42 C452.08,140.47 452.07,140.08 453.54,136.56 C454.76,133.64 455.55,132.91 457.06,133.30 C459.62,133.98 460.37,132.57 458.79,130.04 C457.13,127.37 458.75,124.61 462.23,124.19 C463.63,124.03 465.95,122.56 467.39,120.94 C468.83,119.33 470.65,118.00 471.42,118.00 C472.20,118.00 475.16,120.59 478.01,123.75 L 483.19 129.50 L 478.92 123.00 C478.04,121.65 477.12,120.31 476.16,118.95 C493.62,142.72 504.39,167.66 510.55,197.50 C513.74,213.00 515.56,237.60 514.39,249.42 L 513.50 258.34 L 500.53 260.71 C486.08,263.35 470.74,267.03 461.19,270.14 C457.71,271.28 454.60,271.94 454.28,271.61 C454.06,271.39 453.63,271.39 453.18,271.58 ZM 75.21 291.75 C73.01,287.36 71.85,281.30 69.40,261.50 C69.37,261.23 69.34,260.95 69.30,260.67 C69.60,260.74 70.19,259.63 71.34,257.36 C72.86,254.37 72.84,254.19 70.97,253.70 C69.25,253.25 69.00,253.70 69.00,257.26 C69.00,257.37 69.00,257.48 69.00,257.58 C68.60,252.84 68.38,247.17 68.33,241.32 C68.43,241.66 68.57,241.77 68.73,241.67 C69.31,241.31 71.49,240.80 73.57,240.53 C77.96,239.97 79.57,238.73 78.39,236.84 C75.91,232.87 76.44,232.76 93.82,233.65 C115.12,234.74 132.68,234.72 141.23,233.61 C147.77,232.75 147.99,232.80 148.92,235.11 C149.64,236.92 149.88,235.43 149.92,229.00 C149.95,223.16 149.67,220.97 149.00,222.00 C148.47,222.82 148.02,222.99 148.02,222.36 C148.01,221.74 146.31,220.91 144.25,220.52 C142.19,220.13 138.70,219.00 136.50,218.00 C134.30,217.01 128.56,215.41 123.75,214.46 C118.94,213.51 115.00,212.32 115.00,211.83 C115.00,211.33 114.13,211.40 113.07,211.96 C112.72,212.15 112.27,212.33 111.78,212.48 C113.59,211.76 114.86,210.34 115.18,208.51 C115.37,207.42 116.32,206.37 117.29,206.18 C118.35,205.98 118.94,206.38 118.78,207.17 C118.27,209.62 123.47,209.13 130.71,206.05 C138.57,202.71 144.57,202.66 148.85,205.89 L 151.06 207.55 L 149.53 242.03 C148.68,260.99 147.71,279.09 147.36,282.25 L 146.72 288.00 L 131.61 288.00 C115.66,288.00 93.32,290.13 83.86,292.56 C76.60,294.41 76.54,294.41 75.21,291.75 ZM 69.50 214.09 C69.67,212.59 69.86,211.21 70.08,210.00 C70.60,206.98 71.19,203.38 71.38,202.00 C72.21,196.08 73.32,191.30 74.52,188.50 C75.23,186.85 76.09,184.26 76.43,182.75 C77.01,180.14 77.34,180.00 82.77,179.98 C85.92,179.98 90.30,179.32 92.50,178.53 C100.21,175.75 102.58,176.37 109.73,183.07 C116.14,189.06 119.88,191.33 125.25,192.46 C126.76,192.78 128.00,193.43 128.00,193.90 C128.00,196.72 112.22,203.18 104.50,203.51 C99.69,203.72 98.53,204.10 98.64,205.39 C98.72,206.27 98.04,207.05 97.14,207.11 C96.24,207.16 94.60,207.28 93.50,207.36 C92.35,207.44 91.63,208.10 91.80,208.91 C91.97,209.68 91.55,210.66 90.88,211.07 C90.12,211.55 91.21,212.25 93.79,212.94 C94.04,213.01 94.30,213.09 94.55,213.16 C91.20,212.33 86.15,211.80 80.75,211.81 C73.92,211.83 71.82,211.50 71.15,210.30 C70.50,209.14 69.98,210.19 69.50,214.09 ZM 135.50 181.95 C119.76,178.07 114.80,174.68 113.49,166.93 C112.67,162.11 115.15,155.40 118.09,154.47 C119.94,153.89 139.69,159.65 147.92,163.18 C150.44,164.26 154.07,166.35 156.00,167.82 C157.92,169.29 159.76,170.49 160.07,170.50 C160.39,170.50 161.39,171.25 162.30,172.16 C163.22,173.07 164.53,174.02 165.23,174.26 C166.89,174.84 163.59,178.64 159.67,180.67 C156.15,182.49 140.95,183.29 135.50,181.95 ZM 213.95 177.82 C212.74,173.31 213.24,163.28 214.83,160.31 C217.36,155.60 223.66,152.81 236.97,150.54 C246.92,148.83 246.97,148.86 246.97,157.50 C246.97,166.37 245.89,167.74 234.20,173.63 C228.56,176.48 222.85,179.52 221.51,180.40 C217.26,183.19 215.21,182.49 213.95,177.82 ZM 432.58 119.25 C432.24,120.76 431.41,121.98 430.73,121.95 C429.21,121.89 419.11,116.02 420.50,116.01 C421.05,116.00 421.57,114.76 421.66,113.25 C421.75,111.74 422.32,108.03 422.93,105.00 C424.57,96.80 423.29,84.08 420.60,81.79 C418.62,80.10 418.60,79.92 420.25,78.64 C422.13,77.18 422.64,74.00 421.00,74.00 C420.45,74.00 420.00,73.32 420.00,72.50 C420.00,70.33 424.25,70.62 427.27,73.00 C428.67,74.10 430.46,75.00 431.25,75.00 C432.74,75.00 436.21,77.58 440.96,82.21 L 443.73 84.93 L 441.79 91.21 C440.72,94.67 438.35,101.78 436.53,107.00 C434.70,112.22 432.93,117.74 432.58,119.25 ZM 170.00 154.45 C160.49,150.23 156.00,146.47 156.00,142.73 C156.00,141.19 156.56,139.76 157.25,139.55 C157.94,139.34 163.72,138.92 170.10,138.63 L 181.71 138.09 L 185.35 141.43 C187.68,143.56 189.00,145.67 189.00,147.26 C189.00,150.25 181.85,158.05 179.25,157.89 C178.29,157.84 174.12,156.29 170.00,154.45 ZM 206.05 148.65 C203.70,141.54 203.81,140.97 207.79,139.39 C209.83,138.58 213.75,136.82 216.50,135.49 C219.25,134.15 223.30,132.81 225.50,132.49 C229.02,131.99 229.97,132.33 233.47,135.34 C236.95,138.32 237.28,138.96 236.09,140.39 C235.35,141.28 232.97,142.30 230.81,142.65 C228.64,142.99 223.06,145.24 218.40,147.64 C213.73,150.04 209.30,152.00 208.54,152.00 C207.78,152.00 206.66,150.49 206.05,148.65 ZM 260.98 163.43 C259.83,160.42 259.72,154.98 260.77,153.38 C262.37,150.94 270.37,147.89 276.49,147.39 C280.45,147.06 282.74,147.19 285.23,148.00 C285.23,148.00 285.22,148.00 285.22,148.00 C284.39,148.00 284.07,148.98 284.31,150.75 C284.52,152.26 284.00,154.56 283.16,155.86 L 281.80 157.95 C273.96,161.80 264.29,166.00 262.35,166.00 C262.13,166.00 261.51,164.85 260.98,163.43 ZM 96.69 165.20 C93.72,162.10 93.31,159.84 95.34,157.80 C96.08,157.06 97.22,155.46 97.88,154.23 C98.76,152.58 99.97,152.00 102.54,152.00 C104.56,152.00 106.00,151.50 106.00,150.80 C106.00,150.01 106.34,149.94 106.99,150.59 C108.18,151.78 105.79,164.35 103.95,166.56 C102.13,168.76 99.66,168.29 96.69,165.20 ZM 76.64 257.30 C77.83,258.49 112.02,257.58 112.79,256.34 C113.18,255.71 115.08,254.70 117.00,254.11 C119.75,253.26 118.15,253.16 109.50,253.64 C103.45,253.97 93.44,254.15 87.25,254.04 C78.11,253.87 76.00,254.10 76.00,255.25 C76.00,256.03 76.29,256.95 76.64,257.30 ZM 153.47 133.60 C149.66,131.94 143.78,126.16 144.59,124.86 C145.72,123.03 156.80,126.17 161.68,129.70 C163.43,130.96 165.68,132.00 166.68,132.01 C167.98,132.01 167.67,132.44 165.64,133.51 C162.14,135.33 157.52,135.36 153.47,133.60 ZM 127.25 147.28 C126.56,147.04 126.00,146.30 126.00,145.66 C126.00,145.01 125.10,143.92 124.00,143.23 C120.33,140.94 121.63,139.68 127.00,140.31 C129.92,140.66 132.00,140.51 132.00,139.95 C132.00,138.02 135.34,139.08 137.63,141.75 C138.93,143.26 140.00,144.83 140.00,145.23 C140.00,146.41 129.52,148.10 127.25,147.28 ZM 205.92 134.75 C205.19,132.34 205.50,130.76 206.90,129.75 C207.85,129.06 208.95,127.65 209.34,126.62 C209.94,125.00 210.71,124.83 214.75,125.38 C220.28,126.14 223.42,128.48 221.00,130.04 C220.18,130.57 217.70,131.50 215.50,132.10 C213.30,132.70 210.72,133.60 209.76,134.09 C208.12,134.95 206.09,135.30 205.92,134.75 ZM 104.47 245.05 C103.73,246.25 126.17,245.24 129.50,243.92 C130.86,243.38 131.02,243.08 130.00,242.99 C128.94,242.90 129.08,242.58 130.50,241.92 C131.80,241.31 128.50,241.18 121.00,241.56 C108.36,242.19 96.18,243.66 101.81,243.88 C103.83,243.95 104.87,244.41 104.47,245.05 ZM 80.79 171.30 C76.73,169.95 76.21,169.48 77.04,167.92 C78.46,165.26 80.06,164.56 83.99,164.85 C87.79,165.13 91.00,168.00 91.00,171.11 C91.00,173.47 87.49,173.54 80.79,171.30 ZM 288.57 183.66 C287.46,183.62 286.75,183.40 286.50,183.01 C286.13,182.41 285.08,182.15 284.17,182.43 C282.01,183.09 278.09,180.08 277.57,177.36 C277.11,174.98 280.07,172.39 286.50,169.56 C288.70,168.59 291.47,167.34 292.65,166.78 C293.14,166.55 293.92,166.39 294.85,166.29 C293.03,166.59 291.13,167.40 288.00,169.00 C287.17,169.42 286.61,170.41 286.75,171.20 C286.89,172.00 286.61,174.74 286.13,177.31 C285.31,181.75 285.75,183.48 288.57,183.66 ZM 190.75 122.31 C189.79,122.06 188.94,121.44 188.88,120.93 C188.71,119.68 188.31,118.11 188.00,117.50 C187.86,117.22 187.69,116.54 187.62,115.97 C187.50,114.93 184.61,113.03 180.09,111.01 C178.21,110.16 177.94,109.66 178.88,108.72 C179.65,107.95 180.34,107.87 180.79,108.51 C181.18,109.05 182.09,109.62 182.82,109.77 C184.84,110.19 189.00,113.12 189.00,114.12 C189.00,114.60 189.42,115.00 189.93,115.00 C190.44,115.00 192.45,116.01 194.39,117.25 C198.27,119.73 199.30,122.57 196.00,121.71 C194.90,121.42 194.00,121.60 194.00,122.09 C194.00,123.04 193.64,123.06 190.75,122.31 ZM 183.75 131.88 C180.32,129.33 180.29,128.37 183.59,127.74 C187.64,126.96 192.00,129.03 192.00,131.72 C192.00,133.55 191.46,133.99 189.25,133.97 C187.74,133.95 185.26,133.01 183.75,131.88 ZM 256.55 145.08 C255.92,144.06 258.15,141.53 261.06,139.97 C263.83,138.48 267.88,139.74 267.31,141.90 C266.59,144.69 257.89,147.25 256.55,145.08 ZM 221.25 119.73 C219.97,119.43 219.00,119.13 218.32,118.85 C218.77,118.71 219.33,118.43 220.00,118.00 C221.21,117.22 221.07,117.03 219.25,117.02 C218.88,117.01 218.54,117.05 218.23,117.12 C218.70,116.95 219.33,116.78 220.12,116.62 C225.47,115.56 229.79,115.93 231.48,117.62 C232.37,118.51 232.96,119.35 232.80,119.49 C231.66,120.43 224.78,120.58 221.25,119.73 ZM 101.75 266.31 C105.15,267.20 108.10,266.98 109.42,265.75 C110.51,264.73 110.01,264.28 106.68,263.30 C103.75,262.43 102.23,262.40 101.30,263.17 C99.51,264.65 99.67,265.77 101.75,266.31 ZM 238.01 129.26 C236.65,129.01 234.45,127.72 233.13,126.40 L 230.73 124.00 L 233.67 124.00 C235.29,124.00 237.29,124.56 238.11,125.25 C240.31,127.09 242.38,130.02 241.37,129.86 C240.89,129.79 239.38,129.52 238.01,129.26 ZM 116.25 264.28 C121.32,264.91 121.39,264.90 123.46,264.09 C125.03,263.48 124.64,263.20 121.46,262.68 C115.89,261.76 113.00,261.85 113.00,262.94 C113.00,263.45 114.46,264.05 116.25,264.28 ZM 74.81 234.74 C74.43,236.73 71.51,237.63 70.53,236.06 C69.57,234.49 70.84,233.00 73.13,233.00 C74.51,233.00 75.04,233.55 74.81,234.74 ZM 106.00 104.50 C106.00,103.57 106.94,103.00 108.47,103.00 C110.25,103.00 110.78,103.42 110.36,104.50 C110.05,105.32 108.93,106.00 107.89,106.00 C106.85,106.00 106.00,105.32 106.00,104.50 ZM 424.45 80.91 C424.82,81.51 425.51,82.00 426.00,82.00 C427.54,82.00 428.27,79.87 427.11,78.71 C425.73,77.33 423.42,79.25 424.45,80.91 ZM 453.70 92.62 C452.99,91.89 452.27,91.16 451.53,90.43 C427.17,65.98 398.56,47.44 367.83,35.71 C398.12,47.14 426.35,65.20 450.56,89.43 C451.62,90.49 452.67,91.56 453.70,92.62 ZM 180.00 123.00 C180.00,122.45 181.15,122.00 182.56,122.00 C184.01,122.00 184.85,122.43 184.50,123.00 C184.16,123.55 183.01,124.00 181.94,124.00 C180.87,124.00 180.00,123.55 180.00,123.00 ZM 268.50 129.00 C268.16,128.45 268.81,128.00 269.94,128.00 C271.07,128.00 272.00,128.45 272.00,129.00 C272.00,129.55 271.35,130.00 270.56,130.00 C269.77,130.00 268.84,129.55 268.50,129.00 ZM 139.50 111.00 C139.16,110.45 139.58,110.00 140.44,110.00 C141.30,110.00 142.00,110.45 142.00,111.00 C142.00,111.55 141.58,112.00 141.06,112.00 C140.54,112.00 139.84,111.55 139.50,111.00 ZM 378.25 298.34 C378.58,298.19 378.94,298.01 379.32,297.80 C380.35,297.24 393.14,292.71 409.19,287.21 C398.40,290.96 386.94,295.08 378.25,298.34 ZM 161.76 362.31 C160.81,362.06 159.01,362.05 157.76,362.29 C156.52,362.53 157.30,362.74 159.50,362.75 C161.70,362.76 162.72,362.56 161.76,362.31 ZM 297.64 118.55 C297.55,118.21 297.07,117.64 296.17,116.68 C294.96,115.40 294.26,114.07 294.61,113.72 C294.95,113.39 294.87,112.92 294.55,112.44 C294.94,112.84 295.06,113.28 294.80,113.53 C294.45,113.88 295.14,115.14 296.32,116.32 C297.75,117.75 298.15,118.26 297.64,118.55 ZM 318.11 125.69 C317.82,128.17 316.95,129.00 314.94,129.00 C314.63,129.00 314.34,129.03 314.08,129.09 C314.40,128.97 314.78,128.88 315.18,128.82 C316.58,128.61 317.63,127.52 318.09,125.75 C318.10,125.73 318.11,125.71 318.11,125.69 ZM 425.33 404.32 C425.90,404.05 426.47,403.76 427.04,403.48 C432.28,400.85 438.95,397.02 443.75,394.01 C443.56,394.14 443.37,394.26 443.19,394.38 C437.35,398.12 431.37,401.45 425.33,404.32 ZM 242.00 110.00 C242.00,110.06 242.01,110.11 242.01,110.17 C241.23,109.76 240.49,109.33 239.95,108.93 C240.12,108.97 240.30,109.00 240.50,109.00 C241.32,109.00 242.00,109.45 242.00,110.00 ZM 391.52 385.68 C396.36,385.17 401.04,384.33 406.36,382.97 C403.67,383.68 401.21,384.26 399.00,384.69 C396.98,385.09 394.42,385.42 391.52,385.68 ZM 438.51 372.27 C430.83,375.21 423.62,377.75 417.17,379.81 C423.11,377.89 430.01,375.42 438.51,372.27 ZM 175.94 364.84 C167.51,365.19 162.45,366.04 164.09,367.08 C162.22,365.89 167.70,365.13 175.94,364.84 ZM 216.00 366.92 C212.35,366.35 208.74,365.90 205.09,365.56 C207.92,365.80 210.56,366.09 212.88,366.43 C213.93,366.59 214.97,366.75 216.00,366.92 ZM 293.23 185.87 C296.98,184.24 297.04,182.77 292.46,183.31 C297.13,182.66 296.97,184.29 293.23,185.87 ZM 292.28 151.66 C291.67,151.17 290.67,150.53 289.60,149.92 C290.93,150.62 291.97,151.29 292.28,151.66 ZM 307.74 120.82 C307.20,121.22 306.55,121.79 305.74,122.54 C305.47,122.79 305.20,123.02 304.95,123.23 C305.49,122.71 306.12,122.13 306.73,121.61 C307.12,121.29 307.45,121.02 307.74,120.82 ZM 295.00 119.69 C295.00,119.67 295.00,119.66 295.00,119.64 C295.00,119.42 295.29,119.23 295.73,119.11 C295.31,119.29 295.03,119.50 295.00,119.69 ZM 300.75 122.97 C299.66,122.95 298.25,122.45 297.10,121.79 C298.26,122.45 299.68,122.95 300.75,122.97 ZM 239.00 107.90 C239.00,107.89 239.00,107.87 239.00,107.86 C239.00,107.84 239.00,107.82 239.01,107.80 Z" fill="rgb(247,209,15)"/>
<path d="M 293.23 185.87 C296.97,184.29 297.13,182.66 292.46,183.31 C292.22,183.34 291.98,183.38 291.72,183.42 C291.21,183.49 290.74,183.55 290.30,183.59 C290.34,183.58 290.39,183.57 290.43,183.56 C295.23,182.60 296.09,181.18 294.84,176.26 C293.95,172.75 294.04,171.59 295.38,169.54 C296.27,168.18 297.00,166.83 297.00,166.54 C297.00,166.40 296.94,166.29 296.83,166.21 C297.61,166.22 298.40,166.27 299.15,166.38 C301.54,166.71 307.55,167.40 312.50,167.90 C317.45,168.40 324.28,169.70 327.68,170.78 C331.21,171.90 334.23,172.37 334.73,171.87 C335.21,171.39 338.19,170.88 341.35,170.75 C346.92,170.51 347.07,170.43 346.47,168.01 C345.77,165.25 344.28,163.95 342.00,164.12 C339.02,164.34 337.89,163.98 338.50,163.00 C338.84,162.45 338.38,162.00 337.48,162.00 C336.57,162.00 336.02,161.44 336.25,160.76 C336.47,160.08 336.03,158.89 335.27,158.12 C332.99,155.84 336.80,153.73 343.22,153.72 C344.71,153.71 345.67,153.28 345.34,152.75 C344.98,152.16 345.94,152.05 347.81,152.46 C350.08,152.96 351.34,152.66 352.68,151.32 C354.63,149.37 354.63,145.09 352.68,144.87 C352.03,144.80 354.10,144.40 357.29,144.00 C360.47,143.59 363.27,143.06 363.51,142.83 C363.74,142.59 363.43,140.74 362.81,138.72 C361.87,135.66 361.32,135.13 359.51,135.59 C358.21,135.91 356.84,135.51 356.05,134.56 C355.34,133.70 354.14,133.00 353.38,133.00 C352.62,133.00 352.00,132.50 352.00,131.89 C352.00,131.13 350.51,131.00 347.32,131.47 C345.27,131.78 344.03,131.88 343.12,131.67 C344.52,124.57 345.91,123.47 355.91,121.38 C363.74,119.74 385.56,119.55 391.38,121.07 C393.65,121.67 397.30,122.59 399.50,123.13 C405.75,124.65 414.12,128.10 418.50,130.96 C420.70,132.39 423.82,134.22 425.44,135.03 C429.81,137.21 443.10,150.63 447.71,157.50 C456.75,170.99 461.35,183.24 462.94,198.08 C464.68,214.21 461.88,229.94 455.03,242.50 C449.85,252.02 448.03,254.46 440.28,262.31 C431.51,271.20 424.55,275.24 408.67,280.65 C399.16,283.89 398.35,284.00 383.08,284.00 C364.25,284.00 356.81,282.43 343.21,275.61 C336.25,272.11 332.06,269.06 324.99,262.33 C313.95,251.82 308.23,244.05 303.63,233.31 C299.25,223.07 294.49,201.84 293.74,189.15 C293.61,187.00 293.25,186.84 289.66,187.32 C288.68,187.45 287.71,187.69 286.90,187.98 C287.13,187.87 287.39,187.76 287.66,187.66 C288.31,187.49 289.05,187.28 289.92,187.03 C291.23,186.65 292.34,186.25 293.23,185.87 ZM 278.83 21.42 C309.24,20.11 339.45,24.99 367.83,35.71 C398.56,47.44 427.17,65.98 451.53,90.43 C452.27,91.16 452.99,91.89 453.70,92.62 C462.19,101.36 469.64,110.08 476.16,118.95 C477.12,120.31 478.04,121.65 478.92,123.00 L 483.19 129.50 L 478.01 123.75 C475.16,120.59 472.20,118.00 471.42,118.00 C470.65,118.00 468.83,119.33 467.39,120.94 C465.95,122.56 463.63,124.03 462.23,124.19 C458.75,124.61 457.13,127.37 458.79,130.04 C460.37,132.57 459.62,133.98 457.06,133.30 C455.55,132.91 454.76,133.64 453.54,136.56 C452.07,140.08 452.08,140.47 453.80,142.42 C460.78,150.32 467.18,161.77 471.61,173.84 C469.07,167.59 465.71,161.40 461.45,155.00 C445.10,130.44 423.17,115.16 396.00,109.38 C388.29,107.74 361.17,107.52 352.43,109.02 C342.40,110.75 338.04,111.86 330.75,115.20 C335.11,113.19 338.17,112.07 341.62,111.12 L 345.75 110.00 L 345.40 104.25 C345.22,101.09 344.41,93.78 343.61,88.00 C342.81,82.22 342.12,74.00 342.08,69.73 C342.03,65.13 341.13,58.81 339.87,54.23 C336.94,43.57 336.09,39.18 336.04,34.37 C336.01,31.05 335.49,29.89 333.42,28.54 C332.00,27.61 330.18,27.10 329.37,27.41 C328.54,27.73 328.16,27.54 328.51,26.99 C328.85,26.44 327.87,25.92 326.31,25.81 C319.50,25.36 316.09,25.00 310.00,24.08 C306.42,23.54 296.98,23.02 289.00,22.92 C277.45,22.77 273.87,21.92 278.83,21.42 ZM 404.48 244.25 C403.74,242.19 401.59,235.48 399.71,229.34 L 396.30 218.17 L 408.90 209.84 L 421.50 201.50 L 415.00 200.77 C411.42,200.37 404.30,199.69 399.17,199.27 L 389.84 198.50 L 384.94 187.50 C382.24,181.45 379.55,175.15 378.96,173.50 C377.91,170.60 377.68,170.97 372.10,184.50 L 366.33 198.50 L 355.42 199.28 C349.41,199.70 342.54,200.38 340.15,200.78 L 335.80 201.50 L 347.48 209.38 C353.90,213.71 359.36,217.78 359.61,218.42 C359.85,219.06 358.21,225.57 355.96,232.89 C353.71,240.21 352.08,246.41 352.34,246.67 C353.08,247.42 370.25,238.05 375.79,233.87 C378.01,232.20 378.29,232.26 384.79,235.97 C388.48,238.07 394.42,241.61 398.00,243.83 C401.58,246.06 404.80,247.91 405.17,247.94 C405.54,247.97 405.23,246.31 404.48,244.25 ZM 69.50 214.09 C69.98,210.19 70.50,209.14 71.15,210.30 C71.82,211.50 73.92,211.83 80.75,211.81 C86.15,211.80 91.20,212.33 94.55,213.16 C96.52,213.76 98.22,214.55 98.52,215.03 C99.44,216.52 103.60,216.18 105.00,214.50 C105.68,213.68 107.45,213.00 108.93,213.00 C109.97,213.00 110.94,212.82 111.78,212.48 C112.27,212.33 112.72,212.15 113.07,211.96 C114.13,211.40 115.00,211.33 115.00,211.83 C115.00,212.32 118.94,213.51 123.75,214.46 C128.56,215.41 134.30,217.01 136.50,218.00 C138.70,219.00 142.19,220.13 144.25,220.52 C146.31,220.91 148.01,221.74 148.02,222.36 C148.02,222.99 148.47,222.82 149.00,222.00 C149.67,220.97 149.95,223.16 149.92,229.00 C149.88,235.43 149.64,236.92 148.92,235.11 C147.99,232.80 147.77,232.75 141.23,233.61 C132.68,234.72 115.12,234.74 93.82,233.65 C76.44,232.76 75.91,232.87 78.39,236.84 C79.57,238.73 77.96,239.97 73.57,240.53 C71.49,240.80 69.31,241.31 68.73,241.67 C68.57,241.77 68.43,241.66 68.33,241.32 C68.26,231.58 68.66,221.34 69.50,214.09 ZM 432.58 119.25 C432.93,117.74 434.70,112.22 436.53,107.00 C438.35,101.78 440.72,94.67 441.79,91.21 L 443.73 84.93 L 440.96 82.21 C436.21,77.58 432.74,75.00 431.25,75.00 C430.46,75.00 428.67,74.10 427.27,73.00 C424.25,70.62 420.00,70.33 420.00,72.50 C420.00,73.32 420.45,74.00 421.00,74.00 C422.64,74.00 422.13,77.18 420.25,78.64 C418.60,79.92 418.62,80.10 420.60,81.79 C423.29,84.08 424.57,96.80 422.93,105.00 C422.32,108.03 421.75,111.74 421.66,113.25 C421.57,114.76 421.05,116.00 420.50,116.01 C419.11,116.02 429.21,121.89 430.73,121.95 C431.41,121.98 432.24,120.76 432.58,119.25 ZM 369.00 400.27 C367.06,400.05 364.54,398.85 363.34,397.58 C362.12,396.28 359.40,395.00 357.04,394.62 C354.12,394.16 353.13,393.60 353.67,392.73 C355.35,390.05 354.63,389.17 350.26,388.52 C347.76,388.14 344.32,387.23 342.61,386.50 C340.90,385.76 337.46,384.27 334.97,383.18 C332.47,382.09 328.42,380.64 325.97,379.96 C323.51,379.28 322.09,378.52 322.80,378.26 C323.52,378.01 325.32,378.29 326.80,378.90 C330.65,380.47 343.22,383.59 352.00,385.15 C357.96,386.21 368.73,386.59 378.90,386.35 L 378.90 386.35 C383.50,386.29 387.56,386.10 391.52,385.68 C394.42,385.42 396.98,385.09 399.00,384.69 C401.21,384.26 403.67,383.68 406.36,382.98 L 406.36 382.97 C409.66,382.13 413.20,381.09 417.17,379.81 C423.62,377.75 430.83,375.21 438.51,372.27 C440.36,371.59 442.29,370.87 444.29,370.11 C447.79,368.80 451.10,367.66 453.71,366.85 C454.03,366.76 454.30,366.69 454.50,366.65 L 457.50 366.04 L 454.50 367.49 C447.51,370.87 442.34,372.95 439.94,373.36 C438.54,373.60 435.66,374.97 433.55,376.40 C431.45,377.83 429.08,379.00 428.29,379.00 C427.50,379.00 426.24,379.61 425.49,380.36 C424.75,381.11 421.89,382.02 419.14,382.39 C416.40,382.75 414.00,383.48 413.83,384.00 C413.65,384.53 410.35,385.60 406.50,386.38 C385.12,390.74 378.50,393.41 376.13,398.60 C375.53,399.92 374.47,400.93 373.77,400.84 C373.07,400.75 370.92,400.50 369.00,400.27 ZM 76.64 257.30 C76.29,256.95 76.00,256.03 76.00,255.25 C76.00,254.10 78.11,253.87 87.25,254.04 C93.44,254.15 103.45,253.97 109.50,253.64 C118.15,253.16 119.75,253.26 117.00,254.11 C115.08,254.70 113.18,255.71 112.79,256.34 C112.02,257.58 77.83,258.49 76.64,257.30 ZM 104.47 245.05 C104.87,244.41 103.83,243.95 101.81,243.88 C96.18,243.66 108.36,242.19 121.00,241.56 C128.50,241.18 131.80,241.31 130.50,241.92 C129.08,242.58 128.94,242.90 130.00,242.99 C131.02,243.08 130.86,243.38 129.50,243.92 C126.17,245.24 103.73,246.25 104.47,245.05 ZM 307.74 120.82 C307.45,121.02 307.12,121.29 306.73,121.61 C306.12,122.13 305.49,122.71 304.95,123.23 C303.83,124.14 303.00,124.51 303.00,124.04 C303.00,123.47 301.99,122.99 300.75,122.97 C299.66,122.95 298.25,122.45 297.10,121.79 C295.94,121.13 295.05,120.32 295.00,119.69 C295.03,119.50 295.31,119.29 295.73,119.11 C296.00,119.04 296.32,119.00 296.67,119.00 C297.40,119.00 297.74,118.91 297.64,118.55 C298.15,118.26 297.75,117.75 296.32,116.32 C295.14,115.14 294.45,113.88 294.80,113.53 C295.06,113.28 294.94,112.84 294.55,112.44 C294.26,112.00 293.76,111.55 293.17,111.19 C293.03,110.91 293.03,110.64 293.20,110.46 C293.91,109.76 297.85,113.86 298.05,115.50 C298.33,117.78 300.23,119.05 301.63,117.89 C302.38,117.27 303.00,117.15 303.00,117.63 C303.00,118.11 304.69,118.52 306.75,118.54 C311.91,118.60 314.67,119.73 313.21,121.19 C313.00,121.40 312.79,121.56 312.59,121.66 C311.49,121.49 310.61,121.18 310.41,120.85 C309.80,119.87 309.16,119.78 307.74,120.82 ZM 292.28 151.66 C292.31,151.69 292.33,151.72 292.34,151.74 C292.68,152.29 287.77,155.02 281.80,157.95 L 283.16 155.86 C284.00,154.56 284.52,152.26 284.31,150.75 C284.07,148.98 284.39,148.00 285.22,148.00 C285.22,148.00 285.23,148.00 285.23,148.00 C285.90,148.22 286.59,148.49 287.32,148.82 C288.12,149.17 288.90,149.55 289.60,149.92 C290.67,150.53 291.67,151.17 292.28,151.66 ZM 249.35 136.24 C249.61,135.82 252.79,134.58 256.41,133.49 C260.03,132.40 263.00,131.16 263.00,130.75 C263.00,130.34 264.00,130.00 265.21,130.00 C267.19,130.00 267.27,130.16 265.92,131.51 C262.95,134.48 247.76,138.82 249.35,136.24 ZM 101.75 266.31 C99.67,265.77 99.51,264.65 101.30,263.17 C102.23,262.40 103.75,262.43 106.68,263.30 C110.01,264.28 110.51,264.73 109.42,265.75 C108.10,266.98 105.15,267.20 101.75,266.31 ZM 292.47 240.15 C291.53,238.16 290.64,236.20 289.97,234.58 C287.99,229.84 286.24,227.00 285.29,227.00 C284.16,227.00 283.96,226.43 284.51,224.75 C285.17,222.77 285.31,222.33 284.89,214.01 C286.12,223.02 288.64,231.71 292.47,240.15 ZM 116.25 264.28 C114.46,264.05 113.00,263.45 113.00,262.94 C113.00,261.85 115.89,261.76 121.46,262.68 C124.64,263.20 125.03,263.48 123.46,264.09 C121.39,264.90 121.32,264.91 116.25,264.28 ZM 69.30 260.67 C69.19,259.70 69.09,258.67 69.00,257.58 C69.00,257.48 69.00,257.37 69.00,257.26 C69.00,253.70 69.25,253.25 70.97,253.70 C72.84,254.19 72.86,254.37 71.34,257.36 C70.19,259.63 69.60,260.74 69.30,260.67 ZM 74.81 234.74 C75.04,233.55 74.51,233.00 73.13,233.00 C70.84,233.00 69.57,234.49 70.53,236.06 C71.51,237.63 74.43,236.73 74.81,234.74 ZM 378.25 298.34 C377.92,298.46 377.59,298.58 377.27,298.70 C375.53,299.23 374.18,298.85 372.44,297.53 C372.04,297.23 371.49,296.95 370.88,296.71 C374.76,297.28 378.26,297.60 379.00,297.44 C379.49,297.34 385.65,295.28 394.72,292.21 C386.00,295.26 380.01,297.42 379.32,297.80 C378.94,298.01 378.58,298.19 378.25,298.34 ZM 424.45 80.91 C423.42,79.25 425.73,77.33 427.11,78.71 C428.27,79.87 427.54,82.00 426.00,82.00 C425.51,82.00 424.82,81.51 424.45,80.91 ZM 155.50 116.00 C155.14,115.42 156.14,115.00 157.88,115.00 C159.53,115.00 161.16,115.45 161.50,116.00 C161.86,116.58 160.86,117.00 159.12,117.00 C157.47,117.00 155.84,116.55 155.50,116.00 ZM 286.00 137.92 C286.00,136.77 286.48,135.99 287.08,136.19 C287.67,136.39 288.08,136.97 288.00,137.49 C287.92,138.00 288.67,138.75 289.68,139.14 C291.12,139.71 290.92,139.87 288.75,139.93 C286.61,139.98 286.00,139.54 286.00,137.92 ZM 278.35 138.46 C278.02,137.61 278.00,136.66 278.31,136.36 C279.19,135.48 281.00,136.97 281.00,138.56 C281.00,140.48 279.09,140.40 278.35,138.46 ZM 171.23 123.00 C170.55,121.90 170.37,121.00 170.84,121.00 C171.31,121.00 172.50,121.90 173.50,123.00 C174.89,124.54 174.98,125.00 173.90,125.00 C173.12,125.00 171.92,124.10 171.23,123.00 ZM 242.00 110.00 C242.00,109.45 241.32,109.00 240.50,109.00 C240.30,109.00 240.12,108.97 239.95,108.93 C239.40,108.53 239.04,108.16 239.00,107.90 C239.11,107.57 239.83,107.38 240.93,107.27 C241.58,107.59 242.26,108.19 242.77,109.00 C243.29,109.84 243.50,110.50 243.35,110.81 C242.91,110.61 242.45,110.40 242.01,110.17 C242.01,110.11 242.00,110.06 242.00,110.00 ZM 80.00 136.00 C80.00,134.83 80.77,134.83 83.50,136.00 C85.27,136.76 85.19,136.87 82.75,136.93 C81.24,136.97 80.00,136.55 80.00,136.00 ZM 477.75 203.56 C478.13,213.25 477.19,223.47 475.01,231.50 C474.33,234.00 473.44,236.66 472.39,239.38 C475.52,230.63 477.27,221.36 477.69,211.50 C477.80,208.79 477.83,206.14 477.75,203.56 ZM 218.32 118.85 C216.81,118.22 216.78,117.64 218.23,117.12 C218.54,117.05 218.88,117.01 219.25,117.02 C221.07,117.03 221.21,117.22 220.00,118.00 C219.33,118.43 218.77,118.71 218.32,118.85 ZM 110.50 139.00 C110.16,138.45 110.58,138.00 111.44,138.00 C112.30,138.00 113.00,138.45 113.00,139.00 C113.00,139.55 112.58,140.00 112.06,140.00 C111.54,140.00 110.84,139.55 110.50,139.00 ZM 366.38 295.98 C362.39,295.69 356.81,294.35 350.96,292.41 C355.66,293.82 360.74,294.98 366.38,295.98 ZM 312.95 269.64 C307.69,264.77 303.24,259.95 301.56,257.00 C302.72,259.05 307.99,264.78 312.95,269.64 ZM 286.79 171.97 C286.79,171.64 286.78,171.38 286.75,171.20 C286.61,170.41 287.17,169.42 288.00,169.00 L 288.07 168.96 C287.57,169.28 287.11,170.39 286.79,171.97 ZM 284.06 197.42 C283.99,194.34 284.09,192.30 284.49,190.87 C284.29,192.39 284.14,194.75 284.06,197.42 ZM 285.78 179.86 C285.83,179.13 285.95,178.29 286.13,177.31 C286.15,177.21 286.17,177.11 286.19,177.00 C286.06,178.16 285.92,179.17 285.78,179.86 ZM 288.20 168.90 C289.16,168.41 290.00,168.00 290.76,167.65 C289.78,168.15 288.76,168.64 288.20,168.90 ZM 335.69 127.58 C333.72,127.10 332.00,127.07 332.00,127.88 C332.00,127.04 333.71,127.08 335.69,127.58 ZM 341.60 130.81 C341.43,130.63 341.25,130.43 341.07,130.20 C341.04,130.17 341.01,130.13 340.97,130.09 C341.07,130.18 341.15,130.27 341.23,130.37 C341.35,130.52 341.48,130.67 341.60,130.81 ZM 301.56 257.00 C300.98,255.97 298.84,252.21 296.81,248.64 C296.70,248.45 296.59,248.25 296.47,248.04 C296.56,248.19 296.64,248.34 296.73,248.49 C298.80,252.14 300.98,255.97 301.56,257.00 Z" fill="rgb(246,244,113)"/>
<path d="M 0.00 317.50 L 0.00 0.00 L 284.50 0.00 L 569.00 0.00 L 569.00 317.50 L 569.00 635.00 L 284.50 635.00 L 0.00 635.00 L 0.00 317.50 ZM 107.59 625.06 L 112.00 623.11 L 112.00 616.47 C112.00,612.82 111.66,610.00 111.25,610.21 C100.24,615.74 93.47,616.47 87.90,612.71 C81.87,608.66 79.50,600.15 82.70,594.07 C86.83,586.21 95.34,583.97 104.33,588.37 C107.28,589.82 110.24,591.00 110.90,591.00 C111.73,591.00 112.00,588.99 111.80,584.25 L 111.50 577.50 L 107.50 575.53 C101.76,572.70 89.17,572.75 82.95,575.61 C72.28,580.53 67.00,589.04 67.00,601.34 C67.00,613.17 73.74,622.17 85.50,626.04 C92.66,628.39 100.90,628.02 107.59,625.06 ZM 218.99 624.91 L 223.77 622.85 L 224.18 617.17 C224.41,614.04 224.41,608.22 224.18,604.24 L 223.77 597.00 L 212.39 597.00 L 201.00 597.00 L 201.00 601.30 C201.00,606.70 202.30,608.00 207.70,608.00 C212.15,608.00 212.52,608.47 211.38,612.69 C210.14,617.33 199.16,616.31 193.93,611.08 C190.21,607.37 189.16,600.50 191.40,594.63 C194.37,586.83 204.49,583.79 215.05,587.52 C220.29,589.37 221.14,588.54 220.76,582.00 C220.52,577.92 220.16,577.33 216.85,575.71 C211.77,573.23 204.45,572.56 197.72,573.95 C184.33,576.73 176.50,586.72 176.50,601.00 C176.50,607.52 176.90,609.20 179.56,613.89 C185.15,623.74 194.71,628.42 207.35,627.48 C211.12,627.20 216.36,626.04 218.99,624.91 ZM 329.63 626.40 C336.53,624.06 341.12,620.64 344.42,615.39 C346.82,611.59 347.42,609.36 347.78,603.12 C348.42,592.07 346.91,587.56 340.48,581.30 C333.96,574.95 326.79,572.40 318.26,573.40 C307.73,574.64 300.50,579.21 296.25,587.31 C293.97,591.68 293.54,593.76 293.52,600.50 C293.50,607.52 293.86,609.16 296.47,613.87 C299.97,620.18 304.21,623.69 311.33,626.15 C317.79,628.38 323.57,628.46 329.63,626.40 ZM 132.88 623.00 C133.50,621.35 134.50,618.65 135.12,617.00 L 136.24 614.00 L 145.07 614.00 L 153.90 614.00 L 155.58 620.00 L 157.26 626.00 L 164.13 626.00 C169.13,626.00 171.00,625.64 171.00,624.69 C171.00,623.17 154.40,576.06 153.57,575.23 C153.26,574.93 149.35,574.64 144.87,574.59 L 136.73 574.50 L 135.45 578.00 C129.70,593.80 119.00,624.45 119.00,625.14 C119.00,625.61 121.87,626.00 125.38,626.00 C131.55,626.00 131.79,625.90 132.88,623.00 ZM 248.22 610.25 L 248.50 594.50 L 255.43 605.00 C259.24,610.78 264.09,617.86 266.21,620.75 L 270.06 626.00 L 276.53 626.00 L 283.00 626.00 L 283.00 600.06 L 283.00 574.12 L 276.75 574.42 L 270.50 574.72 L 270.00 589.61 C269.55,603.01 269.36,604.25 268.11,602.00 C267.08,600.16 251.89,577.05 250.53,575.25 C250.43,575.12 246.89,574.74 242.67,574.42 L 235.00 573.82 L 235.00 599.91 L 235.00 626.00 L 241.47 626.00 L 247.95 626.00 L 248.22 610.25 ZM 380.00 606.50 L 380.00 587.00 L 387.00 587.00 L 394.00 587.00 L 394.00 581.00 L 394.00 575.00 L 378.00 574.79 C369.20,574.67 359.64,574.56 356.75,574.54 L 351.50 574.50 L 351.20 580.75 L 350.90 587.00 L 358.95 587.00 L 367.00 587.00 L 367.00 606.50 L 367.00 626.00 L 373.50 626.00 L 380.00 626.00 L 380.00 606.50 ZM 429.23 606.75 L 429.50 587.50 L 437.25 587.21 L 445.00 586.92 L 445.00 580.35 C445.00,574.78 444.76,573.88 443.42,574.39 C442.55,574.73 432.87,575.00 421.92,575.00 L 402.00 575.00 L 402.00 581.00 L 402.00 587.00 L 409.00 587.00 L 416.00 587.00 L 416.00 606.50 L 416.00 626.00 L 422.48 626.00 L 428.96 626.00 L 429.23 606.75 ZM 489.00 620.53 L 489.00 615.07 L 478.25 614.78 L 467.50 614.50 L 467.20 610.37 C466.91,606.40 467.02,606.22 470.20,605.69 C472.01,605.39 476.09,605.31 479.25,605.52 L 485.00 605.91 L 485.00 600.45 L 485.00 595.00 L 475.94 595.00 L 466.89 595.00 L 467.19 590.75 L 467.50 586.50 L 478.25 586.22 L 489.00 585.93 L 489.00 580.19 L 489.00 574.45 L 476.87 574.17 C470.20,574.02 462.32,574.19 459.37,574.56 L 454.00 575.23 L 454.00 600.62 L 454.00 626.00 L 471.50 626.00 L 489.00 626.00 L 489.00 620.53 ZM 111.84 560.90 C121.63,559.37 133.52,555.29 144.50,549.69 C157.85,542.89 169.65,531.42 175.43,519.63 C178.85,512.66 179.35,510.70 179.78,502.49 C180.80,482.92 174.01,473.73 148.00,459.47 C128.45,448.75 121.48,443.64 118.41,437.80 C113.63,428.66 121.54,417.16 136.17,412.01 C143.81,409.31 162.68,408.08 168.22,409.91 C180.99,414.12 178.82,428.39 164.11,436.98 C162.04,438.19 163.54,442.66 166.72,444.74 C168.79,446.09 171.50,446.50 178.46,446.50 C186.57,446.50 187.99,446.21 192.29,443.68 C201.36,438.35 206.34,427.79 203.99,418.87 C202.54,413.40 197.94,406.07 194.23,403.33 C183.97,395.74 173.81,393.00 155.94,393.00 C144.60,393.00 140.54,393.44 131.90,395.59 C102.58,402.90 83.41,420.09 82.19,440.17 C81.19,456.53 87.80,464.30 116.50,480.49 C137.06,492.09 143.00,498.25 143.00,507.95 C143.00,525.78 120.73,542.30 96.50,542.44 C89.68,542.48 87.64,542.07 82.71,539.65 C76.20,536.46 74.06,533.85 73.29,528.15 C72.61,523.09 74.25,518.27 78.58,512.60 C82.41,507.59 87.49,504.25 96.32,500.97 C103.13,498.43 105.54,495.11 102.64,492.21 C101.28,490.85 99.12,490.50 92.21,490.52 C79.97,490.54 70.57,493.14 61.65,498.97 C48.94,507.26 43.53,516.39 43.53,529.50 C43.54,538.88 45.48,543.49 51.89,549.28 C64.50,560.67 86.31,564.90 111.84,560.90 ZM 216.20 543.93 C223.90,541.34 229.56,537.47 235.37,530.83 C238.41,527.35 240.06,526.10 240.35,527.06 C240.58,527.85 241.28,530.39 241.91,532.70 C244.44,542.04 252.60,546.71 264.69,545.74 C273.48,545.03 282.02,540.67 289.89,532.87 C296.73,526.10 296.63,525.98 293.44,537.28 C291.84,542.94 292.34,544.80 295.71,545.64 C299.30,546.54 314.04,545.43 317.05,544.04 C320.31,542.53 321.16,541.12 325.62,529.80 C335.55,504.62 353.43,479.49 362.66,477.73 C368.37,476.63 368.32,477.48 361.90,493.10 C353.31,514.01 351.79,519.46 352.17,528.00 C352.74,540.87 357.87,545.50 371.50,545.43 C383.02,545.38 389.45,542.62 398.01,534.06 L 404.69 527.38 L 405.78 531.48 C408.27,540.77 415.34,545.44 427.00,545.48 C436.91,545.51 443.89,542.17 453.47,532.81 C457.30,529.06 460.56,526.00 460.72,526.00 C460.87,526.00 461.00,527.14 461.00,528.54 C461.00,529.94 461.88,532.81 462.96,534.91 C468.64,546.06 483.27,549.08 497.53,542.06 C508.39,536.71 521.95,520.87 529.11,505.16 C532.63,497.44 532.69,496.21 529.58,495.43 C525.72,494.46 523.68,495.30 522.04,498.51 C517.81,506.82 513.37,513.53 508.78,518.55 C501.00,527.06 495.95,528.95 491.88,524.88 C488.12,521.12 490.13,512.50 502.93,477.50 C505.74,469.80 507.92,462.62 507.77,461.54 C507.43,459.08 504.41,458.23 495.62,458.10 C487.88,457.99 481.79,459.47 479.48,462.02 C478.63,462.96 475.25,471.56 471.97,481.12 C464.11,504.02 459.12,514.07 452.33,520.70 C446.20,526.70 441.54,528.24 437.54,525.62 C431.96,521.96 433.00,514.32 443.16,484.31 C446.92,473.21 450.00,463.22 450.00,462.11 C450.00,456.46 426.25,456.63 422.54,462.30 C421.75,463.51 418.33,472.83 414.94,483.00 C408.00,503.84 403.67,512.93 397.31,520.00 C390.45,527.63 383.18,528.82 381.61,522.57 C380.99,520.11 381.79,517.51 391.91,489.00 C394.15,482.67 395.98,475.70 395.97,473.50 C395.93,462.64 388.34,456.30 376.53,457.25 C367.25,457.99 360.28,461.60 352.09,469.91 C345.75,476.34 335.91,488.61 333.18,493.50 C330.65,498.03 332.26,491.99 336.89,479.59 C342.83,463.68 343.11,462.53 341.57,460.42 C340.59,459.09 338.47,458.73 330.92,458.63 C325.74,458.56 320.34,458.83 318.92,459.23 C315.76,460.12 315.03,461.66 308.83,480.50 C302.24,500.52 297.11,510.74 289.64,518.73 C280.42,528.58 275.16,530.22 271.35,524.42 C268.88,520.64 270.57,513.22 280.02,486.45 C284.41,474.01 288.00,462.98 288.00,461.95 C288.00,458.75 284.40,457.74 274.50,458.18 C260.39,458.79 260.92,458.20 251.82,483.45 C244.76,503.06 243.12,506.43 236.14,515.67 C231.21,522.20 229.09,524.18 225.59,525.52 C220.43,527.49 217.52,526.49 215.87,522.19 C213.81,516.80 216.73,505.46 228.39,473.63 C232.53,462.31 232.74,460.47 230.07,459.04 C227.63,457.73 210.98,457.68 207.62,458.96 C206.24,459.48 204.39,461.00 203.51,462.34 C200.17,467.45 187.23,507.69 185.03,519.85 C181.49,539.38 196.13,550.69 216.20,543.93 ZM 336.50 443.52 C361.74,440.09 378.74,435.60 406.43,425.04 C425.58,417.74 435.63,412.40 449.25,402.28 C461.02,393.54 470.88,384.33 478.46,375.00 C505.19,342.12 521.70,298.32 524.94,251.75 C527.55,214.17 518.71,171.70 501.68,140.00 C481.81,103.02 447.65,67.34 411.51,45.81 C382.78,28.69 352.34,18.05 318.53,13.29 C301.57,10.90 269.97,11.23 253.50,13.96 C211.19,20.97 175.74,36.71 140.08,64.33 C134.33,68.78 122.35,79.74 113.45,88.69 L 97.27 104.95 L 90.63 104.33 C85.41,103.84 83.60,104.04 82.24,105.25 C81.28,106.09 78.25,107.42 75.50,108.20 C71.90,109.22 70.54,110.09 70.64,111.31 C70.72,112.24 70.38,113.00 69.89,113.00 C69.40,113.00 69.00,113.85 69.00,114.89 C69.00,116.35 68.01,116.92 64.64,117.43 C58.77,118.31 56.13,120.28 57.60,122.69 C58.21,123.69 60.00,124.65 61.60,124.84 C63.19,125.03 64.76,125.61 65.08,126.13 C65.40,126.65 67.37,127.35 69.46,127.69 C72.39,128.16 73.46,127.93 74.18,126.65 C74.68,125.74 75.95,125.00 76.99,125.00 C78.03,125.00 79.13,124.61 79.42,124.12 C80.03,123.13 84.99,122.91 85.01,123.88 C85.02,124.22 85.28,125.45 85.60,126.62 C86.05,128.33 85.61,128.88 83.33,129.43 C81.77,129.81 78.53,131.06 76.11,132.21 C72.58,133.90 71.36,134.08 69.85,133.14 C66.76,131.21 56.64,130.53 54.91,132.13 C54.09,132.88 52.13,134.18 50.54,135.00 C48.96,135.82 47.47,137.06 47.25,137.75 C46.68,139.46 49.81,139.33 51.58,137.56 C52.54,136.60 54.24,136.30 56.76,136.66 C62.85,137.51 67.07,139.08 66.37,140.21 C65.92,140.93 67.54,141.04 71.49,140.54 L 77.27 139.82 L 74.26 143.04 L 71.26 146.25 L 68.38 144.22 C65.03,141.86 58.44,140.47 57.54,141.94 C57.20,142.49 54.72,143.23 52.04,143.59 C48.05,144.12 47.05,144.66 46.58,146.53 C46.19,148.10 44.59,149.37 41.55,150.53 C37.90,151.93 29.00,159.75 29.00,161.56 C29.00,161.80 30.01,162.02 31.25,162.04 C32.79,162.06 34.35,163.42 36.20,166.34 C39.65,171.79 43.13,173.77 46.82,172.38 C49.16,171.49 49.92,171.73 52.51,174.18 C56.09,177.56 57.75,177.67 62.49,174.88 C64.47,173.71 66.31,172.97 66.58,173.24 C66.85,173.51 65.52,180.66 63.62,189.12 C59.30,208.36 57.73,222.32 57.73,241.50 C57.74,273.99 64.11,301.70 78.45,331.58 C87.37,350.16 94.77,361.41 105.79,373.16 L 109.22 376.81 L 103.36 377.94 C87.14,381.06 72.30,385.27 69.47,387.55 C67.60,389.06 67.67,389.11 71.00,388.49 C90.73,384.83 103.12,384.32 118.05,386.56 C128.24,388.08 128.64,388.06 137.48,385.81 C145.48,383.76 148.81,383.50 167.00,383.53 C184.25,383.55 189.29,383.92 198.80,385.83 C219.40,389.96 231.53,394.03 259.00,406.01 C289.23,419.20 312.53,426.41 333.34,429.03 C348.40,430.93 344.49,432.37 326.11,431.71 C304.12,430.92 291.12,428.28 267.64,419.81 C259.86,417.01 250.80,413.86 247.50,412.83 C238.43,409.98 213.92,404.00 211.29,404.00 L 208.97 404.00 L 211.72 408.16 C213.96,411.54 214.55,413.71 214.85,419.69 C215.07,424.14 214.73,428.24 213.98,430.06 C213.29,431.71 212.95,433.28 213.21,433.54 C214.08,434.41 239.76,440.02 250.21,441.62 C280.76,446.30 311.11,446.97 336.50,443.52 ZM 315.50 614.65 C307.20,610.84 304.63,599.56 310.21,591.39 C313.69,586.29 322.32,584.31 327.81,587.35 C333.60,590.56 335.87,600.59 332.58,608.45 C330.04,614.55 321.80,617.54 315.50,614.65 ZM 139.67 604.27 C139.03,603.24 144.05,587.00 145.00,587.00 C145.52,587.00 150.99,603.25 150.62,603.68 C149.93,604.50 140.13,605.02 139.67,604.27 ZM 351.50 416.39 C335.01,414.71 319.17,410.33 296.00,401.03 C252.77,383.68 239.39,379.04 219.29,374.45 C207.95,371.85 179.01,368.02 170.50,367.99 C167.75,367.98 164.87,367.57 164.09,367.08 C161.74,365.59 173.20,364.48 188.62,364.71 C218.27,365.15 240.17,370.48 283.57,387.82 C327.68,405.45 348.00,409.81 381.00,408.71 C399.37,408.10 407.04,406.74 421.00,401.65 C428.68,398.84 445.84,391.36 449.25,389.33 C449.66,389.08 450.00,389.14 450.00,389.45 C450.00,390.46 436.29,398.83 427.04,403.48 C416.87,408.59 406.62,412.24 395.84,414.59 C388.70,416.15 360.42,417.30 351.50,416.39 ZM 366.00 366.04 C350.18,363.13 336.74,358.76 317.71,350.36 C288.16,337.31 275.24,333.26 254.14,330.46 C231.24,327.41 212.37,329.09 185.15,336.62 C161.56,343.14 155.96,344.02 139.16,343.87 C113.58,343.65 94.69,342.59 94.29,341.37 C93.57,339.20 101.68,338.54 129.50,338.51 C160.29,338.46 165.75,337.72 185.68,330.90 C200.74,325.74 210.38,323.95 226.58,323.32 C242.16,322.70 258.39,323.88 271.42,326.55 C282.53,328.84 295.78,333.53 318.50,343.23 C354.29,358.52 362.92,360.84 387.00,361.64 C406.88,362.31 413.13,361.18 437.50,352.48 C446.30,349.34 457.55,345.93 462.50,344.90 C471.48,343.03 488.00,342.31 488.00,343.78 C488.00,345.85 484.70,349.04 483.09,348.53 C480.58,347.73 458.99,351.59 449.00,354.62 C444.33,356.03 435.95,358.69 430.40,360.52 C414.84,365.65 406.80,367.09 391.00,367.55 C379.57,367.88 374.28,367.56 366.00,366.04 ZM 369.50 296.50 C347.71,293.03 334.17,287.37 319.50,275.59 C314.12,271.28 303.29,260.05 301.56,257.00 C300.98,255.97 298.80,252.14 296.73,248.49 C288.19,233.46 283.99,217.69 284.02,200.77 C284.02,195.12 284.41,189.90 284.87,189.17 C285.33,188.44 287.49,187.61 289.66,187.32 C293.25,186.84 293.61,187.00 293.74,189.15 C294.49,201.84 299.25,223.07 303.63,233.31 C308.23,244.05 313.95,251.82 324.99,262.33 C332.06,269.06 336.25,272.11 343.21,275.61 C356.81,282.43 364.25,284.00 383.08,284.00 C398.35,284.00 399.16,283.89 408.67,280.65 C424.55,275.24 431.51,271.20 440.28,262.31 C448.03,254.46 449.85,252.02 455.03,242.50 C461.88,229.94 464.68,214.21 462.94,198.08 C461.35,183.24 456.75,170.99 447.71,157.50 C443.10,150.63 429.81,137.21 425.44,135.03 C423.82,134.22 420.70,132.39 418.50,130.96 C414.12,128.10 405.75,124.65 399.50,123.13 C397.30,122.59 393.65,121.67 391.38,121.07 C385.56,119.55 363.74,119.74 355.91,121.38 C345.87,123.48 344.51,124.58 343.10,131.75 C343.02,132.16 342.18,131.54 341.23,130.37 C339.43,128.15 332.00,126.15 332.00,127.88 C332.00,128.41 330.62,129.14 328.93,129.52 C327.23,129.89 324.42,131.68 322.68,133.50 C320.11,136.17 318.50,136.91 314.28,137.35 C311.41,137.65 308.81,137.50 308.51,137.02 C308.21,136.53 309.10,134.92 310.48,133.42 C311.87,131.93 313.00,130.32 313.00,129.85 C313.00,129.38 313.87,129.00 314.94,129.00 C317.32,129.00 318.11,127.83 318.22,124.14 C318.28,121.69 319.14,120.88 324.40,118.26 C336.17,112.39 339.82,111.19 352.43,109.02 C361.17,107.52 388.29,107.74 396.00,109.38 C423.17,115.16 445.10,130.44 461.45,155.00 C473.76,173.49 478.59,190.28 477.69,211.50 C476.84,231.56 470.45,249.15 458.25,265.00 L 452.48 272.50 L 416.49 284.81 C396.69,291.58 379.83,297.26 379.00,297.44 C378.17,297.62 373.90,297.20 369.50,296.50 ZM 286.20 182.74 C285.55,181.96 285.23,181.10 285.49,180.85 C285.75,180.59 286.15,177.93 286.38,174.95 C286.63,171.72 287.35,169.28 288.15,168.92 C288.89,168.58 290.51,167.79 291.74,167.16 C294.06,165.95 297.00,165.61 297.00,166.54 C297.00,166.83 296.27,168.18 295.38,169.54 C294.04,171.59 293.95,172.75 294.84,176.26 C296.09,181.18 295.23,182.60 290.43,183.56 C288.39,183.97 287.00,183.70 286.20,182.74 ZM 318.37 162.51 C317.71,160.81 313.92,160.48 312.41,161.99 C311.76,162.64 310.85,162.31 309.75,161.02 C307.38,158.25 308.75,157.90 316.36,159.30 C322.86,160.50 322.98,160.57 320.99,162.28 C319.21,163.80 318.87,163.83 318.37,162.51 Z" fill="rgb(253,254,251)"/>
</g>
</svg>