<svg width="80" height="80" viewBox="0 0 80 80" fill="none" xmlns="http://www.w3.org/2000/svg">
<path d="M79.5302 46.12C79.8369 44.1233 80.0002 42.08 80.0002 40C80.0002 38.7867 79.9469 37.5867 79.8403 36.4033C78.9069 26.11 70.6602 17.4533 52.5636 17.4533H42.0736C39.5602 17.4533 28.5703 17.28 28.5703 12.59C28.5703 6.58666 50.6869 5.64667 66.2169 10.4933L66.4902 10.04C59.4369 3.79667 50.1636 0 40.0002 0C33.2969 0 26.9736 1.63333 21.4336 4.56333C13.5136 8.75333 8.74023 15.1333 8.74023 20.95C8.74023 32.0567 18.4369 36.49 30.3369 36.49C34.9302 36.49 51.6236 36.49 55.5969 36.49C66.4036 36.49 78.1202 36.3267 79.0269 46.12H79.5302Z" fill="#FFEC00"/>
<path d="M0.469991 33.8798C0.163324 35.8765 0 37.9198 0 39.9998C0 41.2131 0.0533268 42.4131 0.159993 43.5965C1.09333 53.8898 9.34 62.5465 27.4367 62.5465H37.9267C40.44 62.5465 51.43 62.7198 51.43 67.4098C51.43 73.4131 29.3133 74.3531 13.7833 69.5065L13.51 69.9598C20.5633 76.2031 29.8367 79.9998 40 79.9998C46.7033 79.9998 53.0267 78.3665 58.5667 75.4365C66.4867 71.2465 71.26 64.8665 71.26 59.0498C71.26 47.9431 61.5633 43.3965 49.6633 43.3965C45.07 43.3965 28.3767 43.5065 24.4033 43.5065C13.5967 43.5065 1.87999 43.6698 0.973328 33.8765H0.469991V33.8798Z" fill="#FFEC00"/>
</svg>
